<?xml version="1.0" encoding="utf-8"?>
<!-- Generator: Adobe Illustrator 27.0.0, SVG Export Plug-In . SVG Version: 6.00 Build 0)  -->
<svg version="1.1" id="Capa_1" xmlns="http://www.w3.org/2000/svg" xmlns:xlink="http://www.w3.org/1999/xlink" x="0px" y="0px"
	 viewBox="0 0 380.75 115" style="enable-background:new 0 0 380.75 115;" xml:space="preserve">
<style type="text/css">
	.st0{fill:#BABCBE;}
	.st1{fill:#F6009E;}
</style>
<g id="Artwork_3_00000062184701895141902750000012795972118588370611_">
	<g>
		<path class="st0" d="M47.26,96.82L47.26,96.82c-0.96,0-1.92-0.14-2.86-0.42c-4.57-1.35-6.91-3.97-7.59-8.5
			c-0.35-2.35-0.52-4.7-0.51-6.99c0.03-5.61,0.02-11.31,0.02-16.83c0-2.14,0-4.28,0-6.41c0-2.12,0-4.25-0.01-6.37
			c-0.01-5.91-0.02-12.03,0.02-18.04c0.02-2.76,0.2-6.02,1.41-9.23c1.59-4.24,4.98-6.77,9.05-6.77c1.31,0,2.64,0.26,3.98,0.78
			c6.53,2.54,12.61,6.02,18.48,9.38c0.7,0.4,1.41,0.81,2.12,1.21c8.35,4.76,16.75,9.72,24.89,14.51l3.87,2.28
			c1.52,0.9,2.91,1.93,4.12,3.06c2.84,2.65,4.31,5.9,4.13,9.14c-0.17,3.19-1.93,6.2-4.94,8.46c-3.76,2.82-7.83,5.19-11.76,7.48
			c-1.36,0.79-2.76,1.61-4.13,2.43c-1.12,0.67-2.24,1.35-3.36,2.03C74.81,83.67,65.12,89.52,55,94.37
			c-0.24,0.11-0.47,0.23-0.71,0.35C52.28,95.7,50,96.82,47.26,96.82 M46.8,22.68c-2.39,0-3.51,2.04-3.97,3.25
			c-0.91,2.41-1.04,5.07-1.06,7.36c-0.04,6-0.03,12.1-0.02,18c0,2.13,0.01,4.25,0.01,6.38c0,2.14,0,4.27,0,6.41
			c0,5.52,0.01,11.24-0.02,16.86c-0.01,2.02,0.14,4.09,0.45,6.17c0.36,2.45,1.17,3.33,3.75,4.09c0.45,0.13,0.88,0.19,1.32,0.19
			c1.48,0,2.95-0.72,4.64-1.55c0.25-0.12,0.5-0.24,0.75-0.36c9.88-4.74,19.47-10.52,28.73-16.11c1.12-0.68,2.25-1.36,3.37-2.03
			c1.39-0.84,2.82-1.67,4.19-2.47c3.8-2.21,7.73-4.49,11.24-7.13c1.73-1.3,2.69-2.82,2.78-4.41c0.09-1.64-0.75-3.33-2.41-4.88
			c-0.93-0.87-2-1.66-3.18-2.35l-3.87-2.28c-8.11-4.79-16.5-9.73-24.82-14.47c-0.71-0.4-1.42-0.81-2.13-1.22
			c-5.7-3.27-11.6-6.64-17.75-9.03C48.11,22.82,47.43,22.68,46.8,22.68"/>
		<path class="st1" d="M83.84,90.27L83.84,90.27c-0.84,0-1.67-0.12-2.49-0.36c-3.97-1.17-6-3.45-6.58-7.39
			c-0.29-1.96-0.43-3.92-0.42-5.83c0.02-4.62,0.02-9.32,0.01-13.86c0-1.76,0-3.52,0-5.27c0-1.74,0-3.48-0.01-5.23
			c-0.01-4.87-0.01-9.91,0.02-14.88c0.01-2.32,0.17-5.05,1.19-7.77c1.39-3.69,4.34-5.89,7.9-5.89c1.13,0,2.3,0.23,3.45,0.68
			c6.91,2.69,39.33,21.78,40.71,22.59c1.28,0.75,2.45,1.62,3.48,2.58c2.44,2.28,3.71,5.09,3.55,7.91c-0.15,2.77-1.66,5.37-4.26,7.32
			c-4.15,3.12-30.64,18.86-39.97,23.34c-0.19,0.09-0.39,0.19-0.58,0.28C88.14,89.33,86.21,90.27,83.84,90.27 M83.46,29.22
			c-1.6,0-2.41,1.29-2.82,2.37c-0.72,1.91-0.83,4.05-0.84,5.89c-0.03,4.94-0.03,9.97-0.02,14.84c0,1.74,0,3.49,0.01,5.23
			c0,1.76,0,3.51,0,5.27c0,4.55,0.01,9.26-0.01,13.89c-0.01,1.64,0.12,3.32,0.37,5.01c0.27,1.84,0.79,2.4,2.75,2.98
			c0.32,0.1,0.63,0.14,0.95,0.14h0c1.11,0,2.27-0.57,3.61-1.23c0.21-0.1,0.41-0.2,0.62-0.3c8.88-4.26,35.13-19.84,39.06-22.79
			c0.91-0.68,2.02-1.81,2.1-3.27c0.08-1.52-0.95-2.82-1.84-3.65c-0.74-0.69-1.59-1.32-2.53-1.87c-9.27-5.47-34.52-20.11-39.92-22.2
			C84.42,29.32,83.92,29.22,83.46,29.22"/>
		<path class="st1" d="M25.54,87.56L25.54,87.56c-0.78,0-1.57-0.11-2.34-0.34c-3.72-1.1-5.62-3.23-6.17-6.93
			c-0.27-1.8-0.4-3.6-0.39-5.35c0.02-4.21,0.02-8.5,0.01-12.65c0-1.6,0-3.19,0-4.79c0-1.58,0-3.17-0.01-4.75
			c-0.01-4.44-0.01-9.04,0.02-13.57c0.01-2.13,0.16-4.65,1.1-7.16c1.3-3.46,4.08-5.52,7.43-5.52c1.06,0,2.15,0.21,3.23,0.63
			c4.95,1.92,9.53,4.55,13.96,7.08c0.53,0.3,1.06,0.61,1.59,0.91c6.26,3.57,12.56,7.28,18.65,10.88l2.93,1.73
			c1.18,0.7,2.26,1.5,3.21,2.38c2.28,2.13,3.46,4.75,3.32,7.39c-0.14,2.6-1.55,5.03-3.98,6.85c-2.86,2.14-5.92,3.93-8.89,5.65
			c-1.02,0.59-2.07,1.2-3.09,1.81c-0.84,0.51-1.68,1.01-2.53,1.52C46.55,77.6,39.26,82,31.64,85.66c-0.18,0.08-0.35,0.17-0.53,0.26
			C29.54,86.68,27.75,87.56,25.54,87.56 M25.19,31.94c-1.32,0-2,1.09-2.34,2c-0.64,1.71-0.74,3.63-0.75,5.28
			c-0.03,4.5-0.02,9.09-0.02,13.52c0,1.59,0,3.17,0.01,4.76c0,1.6,0,3.19,0,4.78c0,4.15,0.01,8.45-0.01,12.68
			c-0.01,1.48,0.1,3,0.33,4.53c0.22,1.48,0.55,1.99,2.33,2.52c0.27,0.08,0.53,0.12,0.8,0.12c0.95,0,1.99-0.51,3.19-1.09
			c0.19-0.09,0.38-0.18,0.56-0.27c7.38-3.54,14.56-7.87,21.5-12.06c0.84-0.51,1.69-1.02,2.53-1.53c1.05-0.63,2.12-1.25,3.15-1.86
			c2.96-1.72,5.76-3.35,8.36-5.3c0.79-0.59,1.75-1.56,1.81-2.8c0.05-1.01-0.51-2.12-1.6-3.13c-0.66-0.62-1.42-1.18-2.27-1.68
			l-2.93-1.73c-6.08-3.58-12.36-7.29-18.58-10.84c-0.53-0.3-1.07-0.61-1.6-0.91c-4.26-2.44-8.66-4.96-13.22-6.73
			C26.01,32.02,25.58,31.94,25.19,31.94"/>
		<path class="st0" d="M151.95,69.27V45.11h10.35c1.07,0,2.05,0.22,2.94,0.66c0.9,0.44,1.67,1.03,2.31,1.77
			c0.65,0.74,1.15,1.57,1.51,2.48c0.36,0.92,0.54,1.85,0.54,2.81c0,0.84-0.12,1.65-0.36,2.43c-0.24,0.78-0.58,1.49-1.02,2.13
			c-0.44,0.63-0.98,1.18-1.6,1.63c-0.62,0.45-1.32,0.78-2.09,0.99l5.85,9.26h-4.27l-5.22-8.7h-6.06v8.7H151.95z M154.85,57.67h7.04
			c0.61,0,1.16-0.13,1.65-0.39c0.49-0.26,0.91-0.62,1.26-1.07c0.35-0.45,0.62-0.97,0.82-1.56c0.2-0.59,0.29-1.2,0.29-1.83
			c0-0.66-0.11-1.27-0.34-1.85c-0.23-0.58-0.54-1.09-0.92-1.54c-0.43-0.51-0.95-0.89-1.55-1.14c-0.42-0.18-1.15-0.28-1.61-0.28
			l-6.65,0V57.67z"/>
		<polygon class="st0" points="195.44,66.37 195.44,69.27 178.05,69.27 178.05,45.11 194.48,45.11 194.48,48.01 180.95,48.01 
			180.95,55.74 192.55,55.74 192.55,58.64 181.91,58.64 181.91,66.37 		"/>
		<path class="st0" d="M201.03,69.27l9.94-24.16h2.52l9.9,24.16h-3.62l-2.73-6.77h-9.69l-2.7,6.77H201.03z M212.23,48.35
			l-4.53,11.26h8.93L212.23,48.35z"/>
		<path class="st0" d="M231.2,69.27V45.11h8.37c1.93,0,3.62,0.32,5.09,0.95c1.46,0.64,2.68,1.5,3.66,2.59
			c0.98,1.09,1.71,2.37,2.19,3.83c0.49,1.46,0.73,3.02,0.73,4.68c0,1.84-0.27,3.5-0.82,4.99c-0.54,1.49-1.33,2.76-2.35,3.81
			c-1.02,1.06-2.25,1.87-3.69,2.45c-1.44,0.58-3.05,0.87-4.82,0.87H231.2z M248.44,56.67c0-1.41-0.19-2.7-0.58-3.88
			c-0.39-1.18-0.96-2.2-1.72-3.04c-0.76-0.84-1.69-1.51-2.79-1.99c-1.1-0.48-2.35-0.72-3.76-0.72h-5.48v19.33h5.48
			c1.43,0,2.7-0.25,3.81-0.74c1.11-0.49,2.04-1.17,2.78-2.04c0.74-0.87,1.3-1.89,1.69-3.08C248.25,59.34,248.44,58.06,248.44,56.67"
			/>
		<polygon class="st0" points="259.55,45.11 266.48,57.7 273.47,45.11 276.63,45.11 267.93,60.46 267.93,69.27 265.03,69.27 
			265.03,60.39 256.36,45.11 		"/>
		<path class="st0" d="M310.12,49.96c-0.27-0.32-0.64-0.63-1.1-0.93c-0.46-0.3-0.97-0.57-1.55-0.81c-0.57-0.24-1.2-0.43-1.87-0.58
			c-0.68-0.15-1.38-0.22-2.11-0.22c-1.9,0-3.29,0.36-4.17,1.06c-0.88,0.71-1.32,1.68-1.32,2.92c0,0.66,0.13,1.21,0.38,1.65
			c0.25,0.43,0.65,0.81,1.18,1.12c0.54,0.31,1.21,0.58,2.01,0.81c0.8,0.23,1.75,0.47,2.85,0.72c1.26,0.27,2.4,0.59,3.42,0.94
			c1.02,0.36,1.89,0.8,2.61,1.32c0.72,0.53,1.27,1.17,1.65,1.92c0.38,0.76,0.57,1.68,0.57,2.78c0,1.17-0.23,2.18-0.69,3.04
			c-0.46,0.86-1.08,1.57-1.87,2.13c-0.79,0.56-1.72,0.97-2.8,1.24c-1.08,0.26-2.24,0.39-3.5,0.39c-1.88,0-3.66-0.29-5.34-0.88
			c-1.68-0.58-3.21-1.44-4.58-2.56l1.48-2.61c0.37,0.39,0.84,0.78,1.42,1.17c0.58,0.39,1.25,0.74,1.99,1.05
			c0.74,0.31,1.55,0.56,2.4,0.76c0.86,0.19,1.76,0.29,2.7,0.29c1.74,0,3.09-0.31,4.05-0.93c0.96-0.62,1.44-1.54,1.44-2.78
			c0-0.69-0.15-1.26-0.46-1.73c-0.31-0.47-0.76-0.88-1.36-1.22c-0.6-0.34-1.33-0.65-2.21-0.91c-0.88-0.26-1.88-0.53-3-0.81
			c-1.24-0.3-2.32-0.62-3.26-0.96c-0.94-0.34-1.72-0.76-2.35-1.24c-0.63-0.48-1.1-1.06-1.42-1.75c-0.32-0.69-0.48-1.51-0.48-2.47
			c0-1.17,0.22-2.2,0.65-3.09c0.43-0.89,1.04-1.65,1.82-2.27c0.78-0.62,1.71-1.08,2.78-1.39c1.08-0.31,2.24-0.46,3.5-0.46
			c1.65,0,3.14,0.25,4.46,0.75c1.33,0.5,2.51,1.18,3.54,2.03L310.12,49.96z"/>
		<polygon class="st0" points="337.52,66.37 337.52,69.27 321.09,69.27 321.09,45.11 337.52,45.11 337.52,48.01 323.99,48.01 
			323.99,55.74 335.58,55.74 335.58,58.64 323.99,58.64 323.99,66.37 		"/>
		<polygon class="st0" points="363.61,48.01 354.91,48.01 354.91,69.27 352.01,69.27 352.01,48.01 343.32,48.01 343.32,45.11 
			363.61,45.11 		"/>
	</g>
</g>
<g>
</g>
<g>
</g>
<g>
</g>
<g>
</g>
<g>
</g>
<g>
</g>
<g>
</g>
<g>
</g>
<g>
</g>
<g>
</g>
<g>
</g>
<g>
</g>
<g>
</g>
<g>
</g>
<g>
</g>
</svg>
