<svg xmlns="http://www.w3.org/2000/svg" xmlns:xlink="http://www.w3.org/1999/xlink" width="2379" zoomAndPan="magnify" viewBox="0 0 1784.88 1784.99993" height="2379" preserveAspectRatio="xMidYMid meet" version="1.0"><defs><clipPath id="23765b1f91"><path d="M 50 0.0585938 L 1734 0.0585938 L 1734 1784.9375 L 50 1784.9375 Z M 50 0.0585938 " clip-rule="nonzero"/></clipPath><clipPath id="199bcb1689"><path d="M 881 0.0585938 L 1734 0.0585938 L 1734 1784.9375 L 881 1784.9375 Z M 881 0.0585938 " clip-rule="nonzero"/></clipPath></defs><g clip-path="url(#23765b1f91)"><path fill="#e23237" d="M 50.820312 295.925781 L 881.210938 0.0390625 L 1733.914062 290.664062 L 1595.898438 1389.449219 L 881.210938 1785.238281 L 177.746094 1394.664062 L 50.820312 295.945312 Z M 50.820312 295.925781 " fill-opacity="1" fill-rule="nonzero"/></g><g clip-path="url(#199bcb1689)"><path fill="#b52e31" d="M 1733.914062 290.664062 L 881.214844 0.0390625 L 881.214844 1785.183594 L 1595.902344 1389.988281 L 1733.914062 290.675781 L 1733.914062 290.644531 Z M 1733.914062 290.664062 " fill-opacity="1" fill-rule="nonzero"/></g><path fill="#ffffff" d="M 882.535156 208.476562 L 365.089844 1359.804688 L 558.382812 1356.503906 L 662.265625 1096.824219 L 1126.417969 1096.824219 L 1240.207031 1359.804688 L 1424.953125 1363.105469 L 882.535156 208.476562 L 882.535156 208.503906 Z M 883.855469 577.347656 L 1058.699219 942.929688 L 730 942.929688 Z M 883.855469 577.347656 " fill-opacity="1" fill-rule="nonzero"/></svg>