<svg xmlns="http://www.w3.org/2000/svg" xmlns:xlink="http://www.w3.org/1999/xlink" width="2379" zoomAndPan="magnify" viewBox="0 0 1784.88 1784.99993" height="2379" preserveAspectRatio="xMidYMid meet" version="1.0"><defs><clipPath id="84bc4afecb"><path d="M 88 369.992188 L 1692 369.992188 L 1692 917 L 88 917 Z M 88 369.992188 " clip-rule="nonzero"/></clipPath><clipPath id="b749f1630f"><path d="M 16 1021 L 1764 1021 L 1764 1414.671875 L 16 1414.671875 Z M 16 1021 " clip-rule="nonzero"/></clipPath></defs><g clip-path="url(#84bc4afecb)"><path fill="#252f3e" d="M 508.75 749.324219 C 508.75 770.828125 511.074219 788.261719 515.148438 801.046875 C 519.796875 813.832031 525.605469 827.773438 533.742188 842.882812 C 536.652344 847.527344 537.808594 852.175781 537.808594 856.246094 C 537.808594 862.054688 534.328125 867.867188 526.769531 873.679688 L 490.148438 898.082031 C 484.921875 901.570312 479.691406 903.3125 475.035156 903.3125 C 469.230469 903.3125 463.414062 900.40625 457.597656 895.175781 C 449.46875 886.464844 442.488281 877.160156 436.679688 867.867188 C 430.863281 857.988281 425.050781 846.945312 418.660156 833.585938 C 373.324219 887.039062 316.363281 913.773438 247.777344 913.773438 C 198.957031 913.773438 160.011719 899.824219 131.527344 871.9375 C 103.050781 844.046875 88.523438 806.851562 88.523438 760.367188 C 88.523438 710.980469 105.957031 670.886719 141.414062 640.667969 C 176.863281 610.453125 223.949219 595.34375 283.816406 595.34375 C 303.578125 595.34375 323.921875 597.085938 345.421875 599.992188 C 366.933594 602.898438 389.019531 607.546875 412.269531 612.777344 L 412.269531 570.359375 C 412.269531 526.195312 402.964844 495.402344 384.945312 477.386719 C 366.351562 459.371094 334.960938 450.660156 290.207031 450.660156 C 269.863281 450.660156 248.941406 452.984375 227.433594 458.214844 C 205.929688 463.4375 185.003906 469.832031 164.660156 477.96875 C 155.363281 482.035156 148.386719 484.359375 144.316406 485.523438 C 140.25 486.683594 137.34375 487.265625 135.019531 487.265625 C 126.878906 487.265625 122.8125 481.453125 122.8125 469.25 L 122.8125 440.773438 C 122.8125 431.480469 123.972656 424.507812 126.878906 420.441406 C 129.785156 416.375 135.019531 412.304688 143.15625 408.238281 C 163.5 397.777344 187.910156 389.0625 216.394531 382.089844 C 244.871094 374.535156 275.09375 371.050781 307.058594 371.050781 C 376.230469 371.050781 426.800781 386.738281 459.347656 418.117188 C 491.3125 449.496094 507.59375 497.140625 507.59375 561.066406 L 507.59375 749.328125 L 508.75 749.328125 Z M 272.769531 837.652344 C 291.953125 837.652344 311.714844 834.167969 332.636719 827.191406 C 353.5625 820.21875 372.164062 807.433594 387.851562 790.003906 C 397.15625 778.964844 404.128906 766.757812 407.613281 752.816406 C 411.105469 738.871094 413.429688 722.015625 413.429688 702.261719 L 413.429688 677.855469 C 396.574219 673.792969 378.554688 670.304688 359.953125 667.980469 C 341.359375 665.65625 323.339844 664.492188 305.320312 664.492188 C 266.378906 664.492188 237.894531 672.042969 218.71875 687.734375 C 199.53125 703.425781 190.234375 725.503906 190.234375 754.554688 C 190.234375 781.867188 197.207031 802.203125 211.738281 816.152344 C 225.691406 830.679688 246.035156 837.652344 272.769531 837.652344 Z M 739.535156 900.40625 C 729.042969 900.40625 722.050781 898.664062 717.386719 894.59375 C 712.792969 891.113281 708.679688 882.976562 705.183594 871.9375 L 568.617188 422.765625 C 565.132812 411.144531 563.386719 403.589844 563.386719 399.523438 C 563.386719 390.226562 568.035156 384.996094 577.339844 384.996094 L 634.296875 384.996094 C 645.34375 384.996094 652.898438 386.738281 656.964844 390.804688 C 661.613281 394.292969 665.105469 402.429688 668.589844 413.46875 L 766.207031 798.140625 L 856.921875 413.46875 C 859.800781 401.847656 863.300781 394.296875 867.960938 390.808594 C 872.625 387.324219 880.714844 384.996094 891.207031 384.996094 L 937.695312 384.996094 C 948.734375 384.996094 956.277344 386.742188 960.9375 390.808594 C 965.601562 394.296875 969.648438 402.429688 971.976562 413.472656 L 1063.859375 802.792969 L 1164.378906 413.472656 C 1167.875 401.851562 1171.921875 394.296875 1176.035156 390.8125 C 1180.628906 387.324219 1188.238281 385 1198.660156 385 L 1252.761719 385 C 1262.019531 385 1267.230469 389.648438 1267.230469 399.527344 C 1267.230469 402.433594 1266.679688 405.339844 1266.132812 408.824219 C 1265.515625 412.3125 1264.347656 416.960938 1262.019531 423.351562 L 1121.933594 872.523438 C 1118.4375 884.148438 1114.390625 891.703125 1109.730469 895.183594 C 1105.066406 898.675781 1097.523438 900.996094 1087.652344 900.996094 L 1037.664062 900.996094 C 1026.625 900.996094 1019.082031 899.257812 1014.421875 895.183594 C 1009.757812 891.121094 1005.714844 883.566406 1003.382812 871.945312 L 913.285156 497.152344 L 823.804688 871.363281 C 820.855469 882.984375 817.359375 890.539062 812.765625 894.601562 C 808.101562 898.675781 799.941406 900.414062 789.519531 900.414062 L 739.535156 900.414062 Z M 1486.371094 916.097656 C 1456.132812 916.097656 1425.960938 912.609375 1396.890625 905.636719 C 1367.816406 898.664062 1345.121094 891.113281 1330.035156 882.390625 C 1320.710938 877.160156 1314.335938 871.355469 1312.003906 866.125 C 1309.671875 860.894531 1308.507812 855.082031 1308.507812 849.851562 L 1308.507812 820.21875 C 1308.507812 808.015625 1313.167969 802.203125 1321.878906 802.203125 C 1325.375 802.203125 1328.871094 802.785156 1332.367188 803.953125 C 1335.863281 805.109375 1341.074219 807.433594 1346.902344 809.757812 C 1366.652344 818.476562 1388.183594 825.449219 1410.808594 830.097656 C 1434.054688 834.746094 1456.75 837.066406 1479.992188 837.066406 C 1516.609375 837.066406 1545.0625 830.679688 1564.878906 817.894531 C 1584.628906 805.109375 1595.050781 786.519531 1595.050781 762.691406 C 1595.050781 746.425781 1589.839844 733.058594 1579.414062 722.015625 C 1568.925781 710.980469 1549.175781 701.101562 1520.652344 691.800781 L 1436.382812 665.65625 C 1393.941406 652.289062 1362.605469 632.53125 1343.40625 606.382812 C 1324.207031 580.820312 1314.335938 552.34375 1314.335938 522.128906 C 1314.335938 497.726562 1319.546875 476.222656 1330.035156 457.632812 C 1340.527344 439.035156 1354.445312 422.765625 1371.863281 409.980469 C 1389.347656 396.617188 1409.09375 386.738281 1432.339844 379.765625 C 1455.582031 372.792969 1479.992188 369.886719 1505.570312 369.886719 C 1518.324219 369.886719 1531.691406 370.46875 1544.515625 372.210938 C 1557.886719 373.957031 1570.089844 376.28125 1582.296875 378.605469 C 1593.882812 381.507812 1604.921875 384.414062 1615.414062 387.902344 C 1625.90625 391.386719 1633.996094 394.875 1639.824219 398.359375 C 1647.984375 403.007812 1653.8125 407.65625 1657.238281 412.886719 C 1660.738281 417.535156 1662.519531 423.925781 1662.519531 432.0625 L 1662.519531 459.371094 C 1662.519531 471.574219 1657.855469 477.96875 1649.148438 477.96875 C 1644.484375 477.96875 1636.945312 475.644531 1627.070312 470.992188 C 1593.882812 455.882812 1556.71875 448.328125 1515.441406 448.328125 C 1482.324219 448.328125 1456.132812 453.558594 1438.167969 464.601562 C 1420.132812 475.644531 1410.808594 492.496094 1410.808594 516.316406 C 1410.808594 532.589844 1416.636719 546.53125 1428.292969 557.574219 C 1439.882812 568.613281 1461.410156 579.65625 1492.199219 589.53125 L 1574.753906 615.683594 C 1616.578125 629.042969 1646.816406 647.640625 1664.851562 671.460938 C 1682.816406 695.289062 1691.589844 722.597656 1691.589844 752.816406 C 1691.589844 777.800781 1686.3125 800.464844 1676.4375 820.21875 C 1666.015625 839.972656 1652.027344 857.40625 1633.996094 871.355469 C 1616.03125 885.882812 1594.5 896.34375 1569.472656 903.894531 C 1543.347656 912.03125 1516.058594 916.097656 1486.371094 916.097656 Z M 1486.371094 916.097656 " fill-opacity="1" fill-rule="nonzero"/></g><g clip-path="url(#b749f1630f)"><path fill="#ff9900" d="M 1596.214844 1198.46875 C 1404.980469 1339.679688 1127.214844 1414.671875 888.324219 1414.671875 C 553.503906 1414.671875 251.851562 1290.875 24.035156 1085.160156 C 5.984375 1068.914062 22.257812 1046.839844 43.765625 1059.589844 C 290.210938 1202.582031 594.195312 1289.160156 908.605469 1289.160156 C 1120.753906 1289.160156 1353.882812 1245.015625 1568.292969 1154.324219 C 1600.3125 1139.792969 1627.601562 1175.230469 1596.199219 1198.46875 Z M 1675.890625 1107.847656 C 1651.480469 1076.453125 1514.277344 1092.769531 1452.085938 1100.308594 C 1433.503906 1102.640625 1430.554688 1086.324219 1447.425781 1074.121094 C 1556.71875 997.445312 1736.296875 1019.53125 1757.210938 1045.09375 C 1778.191406 1071.242188 1751.453125 1250.773438 1649.148438 1336.800781 C 1633.445312 1350.167969 1618.292969 1343.175781 1625.289062 1325.765625 C 1648.53125 1268.253906 1700.300781 1138.625 1675.890625 1107.847656 Z M 1675.890625 1107.847656 " fill-opacity="1" fill-rule="nonzero"/></g></svg>