<svg xmlns="http://www.w3.org/2000/svg" xmlns:xlink="http://www.w3.org/1999/xlink" width="2379" zoomAndPan="magnify" viewBox="0 0 1784.88 1784.99993" height="2379" preserveAspectRatio="xMidYMid meet" version="1.0"><defs><clipPath id="352c1fb4d4"><path d="M 0 0.0585938 L 1784.761719 0.0585938 L 1784.761719 1784.9375 L 0 1784.9375 Z M 0 0.0585938 " clip-rule="nonzero"/></clipPath></defs><g clip-path="url(#352c1fb4d4)"><path fill="#4e8ef7" d="M 1636.023438 274.21875 C 1636.023438 305.609375 1624.378906 334.238281 1605.347656 356.214844 C 1718.015625 505.632812 1784.878906 691.386719 1784.878906 892.5 C 1784.878906 1384.597656 1384.535156 1784.941406 892.441406 1784.941406 C 400.351562 1784.941406 0 1384.597656 0 892.5 C 0 400.410156 400.34375 0.0585938 892.441406 0.0585938 C 1093.519531 0.0585938 1279.328125 66.949219 1428.742188 179.636719 C 1450.703125 160.546875 1479.289062 148.921875 1510.734375 148.921875 C 1579.898438 148.921875 1636.023438 205.007812 1636.023438 274.21875 Z M 892.441406 1754.902344 C 1368.011719 1754.902344 1754.828125 1368.015625 1754.828125 892.515625 C 1754.828125 699.105469 1690.894531 520.449219 1582.964844 376.445312 C 1562.535156 390.921875 1537.644531 399.503906 1510.734375 399.503906 C 1441.5 399.503906 1385.445312 343.417969 1385.445312 274.21875 C 1385.445312 247.273438 1394.019531 222.367188 1408.453125 201.933594 C 1264.476562 94.050781 1085.777344 30.082031 892.441406 30.082031 C 416.902344 30.082031 29.980469 416.976562 29.980469 892.542969 C 30.007812 1368.042969 416.902344 1754.929688 892.441406 1754.929688 Z M 892.441406 1256.878906 C 691.207031 1256.878906 528.074219 1093.730469 528.074219 892.515625 C 528.074219 691.269531 691.207031 528.132812 892.441406 528.132812 C 1093.65625 528.132812 1256.804688 691.269531 1256.804688 892.515625 C 1256.804688 1093.730469 1093.65625 1256.878906 892.441406 1256.878906 Z M 892.441406 1256.878906 " fill-opacity="1" fill-rule="nonzero"/></g></svg>