<svg xmlns="http://www.w3.org/2000/svg" xmlns:xlink="http://www.w3.org/1999/xlink" width="2379" zoomAndPan="magnify" viewBox="0 0 1784.88 1784.99993" height="2379" preserveAspectRatio="xMidYMid meet" version="1.0"><path fill="#ef533f" d="M 1106.988281 1499.082031 C 1105.804688 1499.085938 1104.628906 1499.011719 1103.453125 1498.863281 C 1102.28125 1498.710938 1101.125 1498.488281 1099.980469 1498.1875 C 1098.835938 1497.886719 1097.714844 1497.515625 1096.621094 1497.070312 C 1095.523438 1496.625 1094.460938 1496.109375 1093.433594 1495.527344 C 1092.402344 1494.945312 1091.417969 1494.300781 1090.472656 1493.589844 C 1089.523438 1492.882812 1088.628906 1492.113281 1087.78125 1491.289062 C 1086.9375 1490.460938 1086.148438 1489.585938 1085.414062 1488.65625 C 1084.679688 1487.730469 1084.011719 1486.757812 1083.402344 1485.742188 L 875.816406 1139.425781 L 487.570312 1244.976562 C 486.101562 1245.332031 484.617188 1245.5625 483.109375 1245.667969 C 481.605469 1245.777344 480.101562 1245.761719 478.597656 1245.621094 C 477.09375 1245.480469 475.613281 1245.214844 474.152344 1244.832031 C 472.695312 1244.445312 471.273438 1243.941406 469.898438 1243.324219 C 468.523438 1242.703125 467.207031 1241.976562 465.949219 1241.136719 C 464.691406 1240.300781 463.511719 1239.367188 462.410156 1238.335938 C 461.308594 1237.304688 460.300781 1236.1875 459.382812 1234.988281 C 458.464844 1233.792969 457.648438 1232.523438 456.941406 1231.191406 L 3.257812 378.308594 C 2.996094 377.824219 2.75 377.328125 2.519531 376.828125 C 2.289062 376.328125 2.074219 375.820312 1.871094 375.304688 C 1.671875 374.792969 1.488281 374.273438 1.320312 373.746094 C 1.148438 373.222656 0.996094 372.691406 0.859375 372.160156 C 0.722656 371.625 0.601562 371.085938 0.496094 370.542969 C 0.390625 370.003906 0.304688 369.457031 0.230469 368.910156 C 0.160156 368.363281 0.105469 367.816406 0.0664062 367.265625 C 0.0273438 366.714844 0.00390625 366.164062 0 365.613281 C -0.0078125 365.0625 0.00390625 364.511719 0.03125 363.960938 C 0.0625 363.410156 0.105469 362.859375 0.164062 362.308594 C 0.226562 361.761719 0.304688 361.214844 0.398438 360.671875 C 0.492188 360.128906 0.601562 359.589844 0.726562 359.050781 C 0.855469 358.515625 0.996094 357.980469 1.15625 357.453125 C 1.3125 356.925781 1.488281 356.402344 1.679688 355.882812 C 1.867188 355.367188 2.074219 354.855469 2.296875 354.347656 C 2.515625 353.84375 2.753906 353.34375 3.003906 352.855469 C 3.253906 352.363281 3.519531 351.878906 3.800781 351.40625 C 4.082031 350.929688 4.375 350.460938 4.683594 350.003906 C 4.992188 349.546875 5.3125 349.101562 5.648438 348.664062 C 5.984375 348.222656 6.332031 347.796875 6.691406 347.378906 C 7.054688 346.960938 7.425781 346.558594 7.8125 346.164062 C 8.199219 345.769531 8.59375 345.386719 9.003906 345.015625 C 9.414062 344.644531 9.832031 344.285156 10.261719 343.941406 C 10.691406 343.597656 11.132812 343.265625 11.582031 342.945312 C 12.03125 342.625 12.492188 342.320312 12.960938 342.03125 C 13.429688 341.738281 13.90625 341.464844 14.390625 341.203125 C 14.878906 340.9375 15.371094 340.691406 15.871094 340.460938 C 16.371094 340.226562 16.878906 340.011719 17.390625 339.808594 C 17.902344 339.605469 18.421875 339.421875 18.949219 339.25 C 19.472656 339.078125 20 338.925781 20.535156 338.785156 C 21.070312 338.648438 21.605469 338.523438 22.148438 338.417969 C 22.6875 338.3125 23.234375 338.222656 23.78125 338.148438 L 408.964844 286.347656 C 410.285156 286.164062 411.617188 286.078125 412.953125 286.089844 C 414.285156 286.101562 415.613281 286.210938 416.933594 286.414062 C 418.253906 286.621094 419.550781 286.921875 420.828125 287.316406 C 422.105469 287.710938 423.34375 288.195312 424.550781 288.773438 C 425.753906 289.347656 426.910156 290.007812 428.019531 290.753906 C 429.128906 291.5 430.175781 292.320312 431.164062 293.21875 C 432.152344 294.117188 433.070312 295.082031 433.917969 296.117188 C 434.765625 297.148438 435.535156 298.238281 436.222656 299.382812 L 901.238281 1075.566406 L 1441.605469 928.601562 L 1261.445312 674.050781 C 1261.121094 673.601562 1260.808594 673.140625 1260.511719 672.671875 C 1260.214844 672.203125 1259.933594 671.726562 1259.664062 671.242188 C 1259.394531 670.753906 1259.144531 670.261719 1258.90625 669.761719 C 1258.667969 669.257812 1258.445312 668.75 1258.238281 668.234375 C 1258.027344 667.722656 1257.835938 667.199219 1257.660156 666.675781 C 1257.484375 666.148438 1257.328125 665.617188 1257.183594 665.082031 C 1257.039062 664.542969 1256.914062 664.003906 1256.800781 663.460938 C 1256.691406 662.917969 1256.597656 662.371094 1256.519531 661.820312 C 1256.441406 661.269531 1256.378906 660.71875 1256.335938 660.167969 C 1256.292969 659.613281 1256.265625 659.058594 1256.253906 658.503906 C 1256.242188 657.949219 1256.25 657.394531 1256.273438 656.839844 C 1256.296875 656.285156 1256.335938 655.734375 1256.394531 655.179688 C 1256.449219 654.628906 1256.523438 654.078125 1256.613281 653.53125 C 1256.703125 652.984375 1256.808594 652.4375 1256.933594 651.898438 C 1257.054688 651.355469 1257.195312 650.820312 1257.351562 650.289062 C 1257.507812 649.753906 1257.679688 649.226562 1257.867188 648.707031 C 1258.054688 648.183594 1258.257812 647.667969 1258.476562 647.15625 C 1258.695312 646.648438 1258.929688 646.144531 1259.179688 645.648438 C 1259.429688 645.152344 1259.695312 644.664062 1259.972656 644.1875 C 1260.25 643.707031 1260.546875 643.234375 1260.851562 642.773438 C 1261.160156 642.3125 1261.480469 641.859375 1261.816406 641.417969 C 1262.152344 640.976562 1262.5 640.542969 1262.863281 640.121094 C 1263.222656 639.699219 1263.597656 639.289062 1263.984375 638.890625 C 1264.367188 638.492188 1264.765625 638.109375 1265.175781 637.734375 C 1265.585938 637.359375 1266.007812 636.996094 1266.4375 636.648438 C 1266.871094 636.300781 1267.3125 635.964844 1267.761719 635.640625 C 1268.214844 635.320312 1268.675781 635.011719 1269.148438 634.71875 C 1269.617188 634.425781 1270.097656 634.144531 1270.585938 633.878906 C 1271.074219 633.613281 1271.566406 633.363281 1272.070312 633.128906 C 1272.574219 632.894531 1273.082031 632.675781 1273.597656 632.472656 C 1274.113281 632.269531 1274.636719 632.078125 1275.164062 631.90625 C 1275.691406 631.734375 1276.222656 631.578125 1276.761719 631.4375 L 1529.59375 571.671875 C 1530.851562 571.375 1532.121094 571.164062 1533.40625 571.042969 C 1534.691406 570.925781 1535.976562 570.894531 1537.269531 570.957031 C 1538.558594 571.019531 1539.835938 571.171875 1541.101562 571.414062 C 1542.371094 571.65625 1543.617188 571.988281 1544.835938 572.40625 C 1546.058594 572.824219 1547.242188 573.324219 1548.394531 573.910156 C 1549.542969 574.496094 1550.648438 575.160156 1551.703125 575.902344 C 1552.761719 576.640625 1553.761719 577.453125 1554.703125 578.335938 C 1555.644531 579.21875 1556.519531 580.164062 1557.328125 581.167969 L 1776.109375 854.101562 C 1776.464844 854.542969 1776.804688 854.996094 1777.132812 855.460938 C 1777.460938 855.921875 1777.773438 856.398438 1778.070312 856.878906 C 1778.367188 857.363281 1778.648438 857.855469 1778.917969 858.355469 C 1779.183594 858.855469 1779.4375 859.363281 1779.671875 859.878906 C 1779.90625 860.394531 1780.125 860.917969 1780.328125 861.445312 C 1780.535156 861.976562 1780.71875 862.511719 1780.890625 863.054688 C 1781.058594 863.59375 1781.214844 864.140625 1781.351562 864.691406 C 1781.484375 865.242188 1781.605469 865.796875 1781.707031 866.355469 C 1781.808594 866.914062 1781.894531 867.472656 1781.960938 868.035156 C 1782.027344 868.601562 1782.078125 869.164062 1782.109375 869.730469 C 1782.140625 870.296875 1782.15625 870.863281 1782.152344 871.433594 C 1782.148438 872 1782.128906 872.566406 1782.089844 873.132812 C 1782.050781 873.699219 1781.996094 874.261719 1781.921875 874.824219 C 1781.847656 875.386719 1781.757812 875.945312 1781.652344 876.503906 C 1781.542969 877.0625 1781.417969 877.613281 1781.277344 878.164062 C 1781.132812 878.710938 1780.972656 879.257812 1780.796875 879.796875 C 1780.621094 880.335938 1780.429688 880.867188 1780.21875 881.394531 C 1780.011719 881.921875 1779.785156 882.441406 1779.542969 882.957031 C 1779.304688 883.46875 1779.046875 883.976562 1778.773438 884.472656 C 1778.5 884.96875 1778.210938 885.457031 1777.910156 885.9375 C 1777.605469 886.417969 1777.289062 886.886719 1776.957031 887.347656 C 1776.625 887.808594 1776.277344 888.253906 1775.917969 888.695312 C 1775.558594 889.132812 1775.183594 889.558594 1774.796875 889.972656 C 1774.410156 890.390625 1774.011719 890.792969 1773.601562 891.183594 C 1773.191406 891.574219 1772.765625 891.949219 1772.332031 892.316406 C 1771.894531 892.679688 1771.449219 893.027344 1770.992188 893.367188 C 1770.539062 893.703125 1770.070312 894.023438 1769.59375 894.332031 C 1769.117188 894.640625 1768.632812 894.933594 1768.136719 895.210938 C 1767.640625 895.488281 1767.140625 895.75 1766.628906 895.996094 C 1766.117188 896.242188 1765.597656 896.472656 1765.074219 896.683594 C 1764.546875 896.898438 1764.015625 897.097656 1763.480469 897.277344 C 1762.941406 897.457031 1762.398438 897.621094 1761.851562 897.769531 L 1532.046875 960.433594 L 1733.199219 1243.949219 C 1733.816406 1244.8125 1734.378906 1245.710938 1734.890625 1246.640625 C 1735.402344 1247.570312 1735.859375 1248.527344 1736.257812 1249.507812 C 1736.660156 1250.492188 1737.003906 1251.496094 1737.285156 1252.519531 C 1737.570312 1253.542969 1737.796875 1254.578125 1737.960938 1255.625 C 1738.125 1256.675781 1738.226562 1257.730469 1738.269531 1258.789062 C 1738.308594 1259.851562 1738.289062 1260.910156 1738.207031 1261.96875 C 1738.125 1263.027344 1737.984375 1264.078125 1737.78125 1265.121094 C 1737.578125 1266.160156 1737.316406 1267.1875 1736.992188 1268.199219 C 1736.667969 1269.210938 1736.289062 1270.199219 1735.851562 1271.167969 C 1735.414062 1272.136719 1734.921875 1273.074219 1734.375 1273.984375 C 1733.832031 1274.894531 1733.234375 1275.769531 1732.585938 1276.609375 C 1731.9375 1277.453125 1731.242188 1278.253906 1730.503906 1279.011719 C 1729.761719 1279.773438 1728.980469 1280.488281 1728.15625 1281.15625 C 1727.332031 1281.828125 1726.472656 1282.445312 1725.574219 1283.015625 C 1724.679688 1283.585938 1723.753906 1284.101562 1722.796875 1284.5625 C 1721.84375 1285.023438 1720.863281 1285.429688 1719.859375 1285.777344 L 1115.757812 1497.105469 C 1112.9375 1498.152344 1110.023438 1498.71875 1107.015625 1498.804688 Z M 930.78125 1124.414062 L 1118.933594 1438.230469 L 1667.261719 1246.230469 L 1475.742188 976.222656 Z M 70.171875 386.886719 L 494.726562 1186.1875 L 847.109375 1090.578125 L 398.355469 343.246094 Z M 1330.167969 675.582031 L 1498.6875 913.253906 L 1708.277344 856.246094 L 1525.949219 629.15625 Z M 1330.167969 675.582031 " fill-opacity="1" fill-rule="nonzero"/></svg>