<svg xmlns="http://www.w3.org/2000/svg" xmlns:xlink="http://www.w3.org/1999/xlink" width="2379" zoomAndPan="magnify" viewBox="0 0 1784.88 1784.99993" height="2379" preserveAspectRatio="xMidYMid meet" version="1.0"><defs><clipPath id="b08c3a41c1"><path d="M 746 789.566406 L 909 789.566406 L 909 1417 L 746 1417 Z M 746 789.566406 " clip-rule="nonzero"/></clipPath><clipPath id="52656337f0"><path d="M 892 1326 L 934 1326 L 934 1503.515625 L 892 1503.515625 Z M 892 1326 " clip-rule="nonzero"/></clipPath></defs><path fill="#47474a" d="M 81.386719 518.070312 L 81.386719 563.882812 C 81.332031 565.699219 81.4375 567.507812 81.695312 569.308594 C 82.289062 574.734375 85.621094 578.039062 90.519531 579.5625 C 95.09375 580.765625 99.726562 581.671875 104.417969 582.277344 C 107.132812 582.585938 108.035156 583.777344 108.34375 586.6875 C 108.652344 596.941406 107.75 598.15625 97.800781 597.539062 C 74.589844 596.324219 51.359375 596.039062 28.148438 597.539062 L 25.945312 597.539062 C 18.707031 597.847656 18.113281 597.230469 18.113281 589.996094 C 18.113281 588.78125 18.421875 587.28125 18.421875 586.070312 C 18.421875 583.863281 19.921875 582.761719 22.039062 582.761719 C 26.890625 582.164062 31.394531 580.953125 35.9375 580.046875 C 42.269531 578.546875 45.867188 574.621094 46.484375 568.292969 C 47.367188 561.367188 47.367188 554.132812 47.367188 547.183594 L 47.675781 466.417969 C 47.722656 465.246094 47.609375 464.089844 47.332031 462.953125 C 47.050781 461.8125 46.617188 460.734375 46.03125 459.71875 C 45.445312 458.703125 44.730469 457.792969 43.882812 456.980469 C 43.039062 456.167969 42.09375 455.492188 41.054688 454.949219 C 35.582031 451.910156 29.847656 449.496094 23.847656 447.714844 C 22.039062 447.117188 20.230469 446.832031 18.730469 445.90625 C 14.316406 443.789062 14.207031 439.882812 18.421875 437.457031 C 19.921875 436.574219 21.730469 435.957031 23.539062 435.648438 C 41.882812 432.941406 59.769531 428.421875 77.195312 422.085938 C 80.8125 420.871094 81.714844 421.203125 82.046875 424.796875 C 82.355469 427.003906 82.046875 429.648438 81.738281 431.722656 C 81.144531 435.648438 81.144531 439.550781 81.144531 443.191406 C 81.144531 444.691406 81.453125 446.214844 82.953125 447.117188 C 84.453125 448.023438 85.972656 447.117188 87.363281 446.234375 C 93.695312 441.382812 100.027344 436.882812 106.957031 433.003906 C 116.882812 427.578125 127.472656 422.746094 138.945312 421.246094 C 152.84375 419.4375 164.867188 423.054688 175.4375 432.097656 C 179.824219 436.023438 183.640625 440.441406 186.886719 445.351562 C 189.910156 449.765625 190.195312 449.875 194.121094 446.851562 C 205.59375 438.40625 217.640625 430.882812 230.613281 425.460938 C 244.179688 419.722656 258.058594 418.84375 271.914062 423.652344 C 286.078125 428.765625 295.738281 438.714844 301.476562 452.277344 C 306.328125 463.128906 308.402344 474.335938 308.402344 486.023438 L 308.402344 566.792969 C 308.402344 572.21875 310.609375 575.613281 315.949219 578.261719 C 321.683594 580.46875 328.015625 581.570312 334.039062 582.78125 C 337.964844 583.664062 337.964844 583.664062 337.964844 587.636719 C 337.371094 597.558594 336.464844 598.179688 326.804688 597.558594 C 302.585938 596.203125 278.371094 596.203125 254.152344 597.558594 C 249.300781 597.867188 249.300781 597.867188 249.035156 593.039062 L 249.035156 591.539062 C 248.726562 583.378906 248.726562 583.378906 256.578125 581.613281 L 264.410156 579.496094 C 265.070312 579.339844 265.710938 579.132812 266.335938 578.871094 C 266.960938 578.609375 267.558594 578.296875 268.128906 577.933594 C 268.699219 577.570312 269.238281 577.164062 269.742188 576.710938 C 270.246094 576.261719 270.707031 575.769531 271.128906 575.242188 C 271.550781 574.710938 271.925781 574.148438 272.25 573.558594 C 272.578125 572.964844 272.855469 572.351562 273.078125 571.710938 C 273.304688 571.074219 273.472656 570.421875 273.589844 569.753906 C 273.703125 569.089844 273.761719 568.417969 273.765625 567.742188 L 274.648438 545.132812 L 274.054688 486.066406 C 273.820312 480.757812 272.71875 475.632812 270.742188 470.695312 C 263.199219 452.300781 246.628906 445.683594 230.636719 447.492188 C 218.566406 448.707031 208.019531 453.515625 198.070312 460.460938 C 195.953125 461.960938 194.453125 463.769531 194.761719 466.792969 C 197.476562 486.089844 195.644531 505.390625 195.976562 524.664062 L 195.976562 566.570312 C 195.976562 574.113281 198.996094 577.730469 206.234375 579.539062 L 220.132812 582.5625 C 222.25 582.871094 223.441406 583.773438 223.441406 586.179688 L 223.441406 588.386719 C 223.132812 596.832031 222.558594 597.207031 214.089844 597.117188 C 189.976562 595.90625 165.839844 596.238281 142.035156 597.117188 C 133.871094 597.429688 133.210938 596.523438 133.585938 588.296875 C 133.894531 583.445312 134.464844 583.179688 139.011719 582.277344 L 148.9375 580.46875 C 157.765625 578.660156 161.007812 575.351562 161.601562 566 L 162.484375 545.796875 L 161.890625 485.207031 C 161.292969 477.664062 159.683594 470.429688 155.558594 463.503906 C 149.535156 452.34375 140.113281 446.632812 127.207031 446.015625 C 114.234375 445.132812 102.785156 449.941406 91.910156 455.941406 C 84.363281 460.351562 81.054688 465.578125 81.648438 474.335938 L 81.648438 518.335938 Z M 649.414062 519.902344 L 649.414062 562.402344 C 649.464844 565.425781 649.664062 568.441406 650.011719 571.445312 C 650.074219 572.445312 650.296875 573.410156 650.675781 574.339844 C 651.054688 575.269531 651.566406 576.113281 652.21875 576.875 C 652.871094 577.636719 653.628906 578.277344 654.488281 578.792969 C 655.347656 579.308594 656.269531 579.675781 657.246094 579.894531 C 662.46875 581.414062 667.792969 582.320312 673.222656 582.605469 C 676.242188 582.914062 676.839844 584.105469 677.148438 586.53125 L 677.148438 588.648438 C 676.839844 599.191406 675.648438 600.40625 665.390625 599.808594 C 642.445312 598.308594 619.566406 598.597656 596.644531 599.808594 L 587.820312 600.117188 C 586.007812 600.117188 585.613281 599.238281 585.105469 598 C 584.214844 593.78125 584.214844 589.5625 585.105469 585.339844 C 585.414062 583.53125 586.605469 583.136719 588.414062 582.628906 C 592.828125 582.03125 596.578125 581.128906 600.769531 580.421875 C 608.3125 578.613281 611.027344 575.570312 611.316406 567.761719 L 612.199219 542.441406 L 612.199219 468.292969 C 612.199219 462.867188 610.078125 459.558594 605.269531 457.132812 C 599.84375 454.109375 594.105469 452.015625 588.0625 449.898438 C 586.253906 449.300781 584.445312 448.683594 582.941406 447.78125 C 579.015625 445.066406 578.53125 441.164062 582.347656 438.140625 C 584.101562 436.699219 586.109375 435.890625 588.371094 435.714844 C 607.675781 432.695312 626.359375 428.480469 644.453125 421.246094 C 646.570312 420.363281 647.472656 420.9375 648.378906 422.746094 C 649.285156 424.554688 649.59375 426.671875 649.261719 428.769531 L 648.378906 442.925781 C 648.378906 444.734375 647.496094 447.339844 648.976562 448.042969 C 650.785156 449.257812 651.996094 446.542969 653.496094 445.839844 C 662.4375 438.339844 672.1875 432.113281 682.75 427.15625 C 692.105469 422.746094 701.726562 419.921875 712.601562 420.539062 C 732.808594 421.753906 747.28125 432.011719 756.617188 449.785156 C 761.46875 459.136719 763.542969 469.371094 764.449219 479.9375 L 765.328125 501.992188 L 765.640625 568.601562 C 765.949219 573.71875 767.757812 577.046875 772.875 578.855469 C 778.191406 580.628906 783.617188 581.9375 789.15625 582.78125 C 794.011719 583.378906 794.277344 584.28125 794.585938 588.804688 L 794.585938 590.304688 C 793.988281 600.558594 793.371094 600.847656 783.113281 600.230469 C 760.601562 599.023438 738.089844 599.023438 715.582031 600.230469 C 712.558594 600.539062 709.558594 600.230469 706.753906 600.539062 C 704.945312 600.539062 703.734375 600.230469 703.445312 598.421875 C 702.851562 594.496094 702.234375 590.589844 703.136719 586.355469 C 703.445312 584.546875 704.351562 583.644531 706.445312 583.335938 L 720.34375 581.128906 C 725.199219 579.914062 727.890625 576.71875 728.507812 572.304688 L 729.105469 563.859375 L 728.796875 500.867188 C 728.796875 493.632812 728.488281 486.398438 726.988281 479.164062 C 723.367188 463.726562 711.609375 452.699219 695.660156 451.152344 C 681.757812 449.65625 669.183594 453.273438 657.667969 460.792969 C 651.929688 464.410156 649.503906 469.527344 649.503906 475.855469 L 649.503906 521.378906 C 649.503906 520.496094 649.503906 520.496094 649.8125 520.496094 Z M 649.414062 519.902344 " fill-opacity="1" fill-rule="nonzero"/><path fill="#c2bfbf" d="M 1532.402344 434.589844 C 1529.09375 412.578125 1520.933594 392.992188 1506.769531 375.8125 C 1500.597656 368.222656 1493.578125 361.519531 1485.714844 355.699219 C 1477.851562 349.882812 1469.390625 345.132812 1460.328125 341.449219 C 1441.355469 333.617188 1421.121094 331.191406 1400.628906 330.597656 C 1392.175781 330.289062 1277.015625 332.097656 1268.5625 330.597656 C 1266.445312 330.289062 1264.945312 330.90625 1263.710938 332.714844 C 1262.210938 334.921875 1260.6875 337.234375 1259.785156 339.640625 C 1256.164062 347.800781 1256.164062 347.183594 1264.902344 348.375 C 1272.136719 349.585938 1279.066406 350.183594 1286.015625 352.300781 C 1292.347656 354.417969 1296.871094 358.035156 1298.371094 364.960938 C 1298.964844 368.269531 1299.582031 474.355469 1299.582031 523.804688 L 1298.371094 559.09375 C 1298.0625 561.808594 1297.773438 564.519531 1296.871094 566.925781 C 1295.65625 570.542969 1293.558594 573.542969 1289.941406 575.085938 C 1285.925781 576.972656 1281.707031 578.078125 1277.277344 578.394531 C 1269.117188 579.277344 1267.925781 579.605469 1265.210938 588.648438 L 1264.328125 591.957031 C 1263.734375 595.882812 1264.019531 596.480469 1267.945312 596.480469 L 1358.089844 597.363281 L 1393.390625 596.765625 L 1417.8125 593.746094 C 1445.546875 588.628906 1470.277344 577.160156 1491.367188 558.785156 C 1497.394531 553.46875 1502.839844 547.613281 1507.710938 541.222656 C 1512.582031 534.828125 1516.78125 528.023438 1520.3125 520.804688 C 1528.761719 503.933594 1532.382812 485.515625 1533.285156 466.859375 C 1534.785156 456.316406 1534.167969 445.464844 1532.402344 434.613281 Z M 1488.675781 477.378906 C 1487.464844 496.675781 1483.558594 515.359375 1473.609375 532.230469 C 1460.945312 554.242188 1442.855469 569.617188 1417.835938 575.019531 C 1406.980469 577.226562 1396.125 578.328125 1384.742188 576.828125 C 1376.578125 575.945312 1368.769531 575.019531 1361.226562 572.304688 C 1347.65625 567.453125 1342.824219 559.074219 1342.539062 545.839844 L 1342.230469 364.101562 C 1342.230469 353.25 1347.082031 350.867188 1354.894531 350.535156 C 1366.652344 349.652344 1378.71875 349.941406 1390.480469 351.132812 C 1403.058594 352.347656 1415.222656 355.289062 1426.96875 359.953125 C 1435.707031 363.59375 1443.652344 368.519531 1450.796875 374.730469 C 1467.078125 388.625 1477.933594 406.050781 1483.890625 426.5625 C 1488.742188 443.148438 1489.625 460.019531 1488.742188 476.894531 Z M 1782.984375 506.933594 C 1782.984375 505.125 1782.984375 503.625 1782.675781 501.816406 C 1779.960938 485.230469 1771.203125 472.570312 1757.65625 462.933594 C 1748.921875 456.601562 1738.96875 452.390625 1728.710938 449.367188 C 1726.902344 448.773438 1725.402344 448.15625 1723.59375 447.867188 C 1723.902344 446.367188 1724.808594 446.058594 1725.710938 445.75 C 1731.734375 442.730469 1737.46875 439.421875 1742.589844 434.898438 C 1751.941406 427.070312 1758.03125 417.410156 1761.273438 405.652344 C 1763.085938 399.324219 1763.085938 392.992188 1762.488281 386.355469 C 1762.367188 384.417969 1762.136719 382.496094 1761.796875 380.585938 C 1761.457031 378.675781 1761.015625 376.792969 1760.464844 374.933594 C 1759.914062 373.074219 1759.261719 371.25 1758.507812 369.464844 C 1757.753906 367.675781 1756.902344 365.9375 1755.949219 364.246094 C 1755 362.554688 1753.960938 360.925781 1752.824219 359.351562 C 1751.691406 357.777344 1750.476562 356.269531 1749.171875 354.832031 C 1747.871094 353.394531 1746.492188 352.035156 1745.035156 350.753906 C 1743.582031 349.46875 1742.058594 348.273438 1740.472656 347.160156 C 1726.570312 336.90625 1710.3125 332.691406 1693.433594 332.382812 C 1660.871094 331.789062 1628.019531 332.382812 1595.480469 332.382812 C 1586.125 332.382812 1576.792969 332.980469 1567.128906 331.5 C 1565.320312 331.191406 1562.71875 330.621094 1561.394531 332.714844 C 1559.1875 336.640625 1556.539062 340.542969 1555.65625 345.066406 C 1555.347656 347.183594 1555.964844 348.375 1558.371094 348.683594 L 1579.175781 351.703125 C 1587.339844 352.917969 1593.074219 357.4375 1593.648438 364.671875 C 1594.238281 369.675781 1594.535156 374.699219 1594.53125 379.738281 L 1593.933594 436.089844 L 1593.625 547.605469 C 1593.625 554.21875 1592.742188 560.574219 1591.507812 567.191406 C 1591.359375 568.238281 1591.066406 569.246094 1590.625 570.214844 C 1590.1875 571.179688 1589.621094 572.0625 1588.925781 572.863281 C 1588.230469 573.667969 1587.4375 574.355469 1586.542969 574.925781 C 1585.648438 575.5 1584.695312 575.933594 1583.675781 576.230469 C 1577.652344 578.039062 1571.917969 579.847656 1565.585938 579.847656 C 1564.738281 579.769531 1563.902344 579.832031 1563.078125 580.035156 C 1562.253906 580.238281 1561.484375 580.574219 1560.773438 581.039062 C 1560.0625 581.503906 1559.445312 582.070312 1558.929688 582.746094 C 1558.410156 583.417969 1558.019531 584.160156 1557.753906 584.964844 C 1556.539062 587.679688 1555.546875 590.699219 1555.039062 593.414062 C 1554.441406 597.03125 1555.347656 598.265625 1558.964844 597.824219 C 1561.679688 597.515625 1661.179688 599.941406 1679.867188 598.132812 C 1691.03125 596.921875 1701.929688 595.421875 1713.023438 592.113281 C 1732 586.089844 1749.515625 577.335938 1763.371094 562.558594 C 1774.84375 550.492188 1781.460938 536.023438 1782.058594 519.152344 C 1782.941406 515.226562 1782.941406 511.324219 1782.941406 507.085938 Z M 1636.757812 383.421875 L 1637.640625 359.3125 C 1637.640625 354.792969 1639.449219 352.695312 1643.972656 351.769531 C 1651.207031 350.269531 1658.445312 350.886719 1665.679688 351.175781 C 1672.917969 351.769531 1679.84375 352.675781 1687.082031 354.792969 C 1700.316406 358.71875 1710.597656 366.261719 1716.644531 378.898438 C 1719.421875 384.71875 1720.824219 390.847656 1720.859375 397.292969 C 1721.167969 405.742188 1720.550781 413.878906 1717.238281 421.996094 C 1712.121094 433.15625 1704.003906 440.390625 1692.222656 442.507812 C 1680.441406 444.625 1646.992188 443.722656 1641.875 443.722656 C 1637.351562 443.722656 1637.023438 443.125 1637.023438 438.605469 L 1637.023438 410.21875 C 1636.3125 401.382812 1636.210938 392.535156 1636.714844 383.683594 Z M 1734.710938 545.574219 C 1729.59375 559.140625 1720.238281 568.511719 1706.980469 573.585938 C 1699.746094 576.296875 1692.507812 577.996094 1684.917969 577.511719 C 1675.5625 577.203125 1666.230469 577.511719 1656.898438 575.703125 C 1644.238281 572.988281 1638.5 560.925781 1637.597656 552.191406 C 1636.09375 536.820312 1637 521.136719 1636.714844 509.691406 L 1636.714844 469.902344 C 1636.714844 465.050781 1637.308594 463.570312 1642.449219 463.570312 L 1670.800781 463.878906 L 1690.105469 466.085938 C 1703.671875 469.105469 1716.027344 474.246094 1725.691406 484.765625 C 1733.523438 493.214844 1737.757812 503.449219 1738.660156 514.609375 C 1739.542969 525.152344 1738.972656 535.40625 1735.042969 545.355469 Z M 1734.710938 545.574219 " fill-opacity="1" fill-rule="nonzero"/><path fill="#47474a" d="M 968.71875 454.769531 L 976.550781 455.984375 C 985 456.292969 994.949219 453.269531 997.953125 441.515625 C 998.777344 438.707031 999.191406 435.839844 999.191406 432.914062 C 999.191406 429.988281 998.777344 427.121094 997.953125 424.3125 C 996.140625 424.3125 995.238281 425.8125 994.332031 426.429688 C 989.8125 430.046875 984.691406 432.164062 979.265625 432.757812 C 968.410156 433.972656 957.554688 433.355469 947.011719 429.453125 L 932.230469 424.335938 C 921.828125 420.929688 911.164062 419.53125 900.238281 420.144531 C 884.863281 421.355469 870.390625 426.472656 856.820312 433.707031 C 842.347656 441.539062 832.113281 453.292969 827.257812 469.285156 C 824.542969 478.636719 824.234375 488.25 825.449219 497.914062 C 828.472656 519.925781 839.921875 535.296875 860.417969 543.433594 C 861.628906 543.746094 862.535156 544.316406 863.726562 544.648438 C 866.441406 546.148438 866.75 547.671875 864.320312 549.765625 L 856.777344 554.882812 L 838.6875 566.042969 C 834.164062 568.753906 833.566406 570.894531 835.066406 575.679688 C 835.964844 578.496094 837.234375 581.132812 838.871094 583.59375 C 840.511719 586.050781 842.457031 588.238281 844.707031 590.148438 C 848.875 593.722656 853.5 596.539062 858.585938 598.597656 C 861.894531 600.097656 861.894531 600.800781 858.894531 603.449219 L 841.6875 615.800781 C 835.949219 620.210938 830.214844 624.621094 825.40625 630.269531 C 823.730469 632.058594 822.300781 634.023438 821.113281 636.164062 C 819.925781 638.308594 819.019531 640.5625 818.386719 642.925781 C 817.757812 645.292969 817.421875 647.699219 817.386719 650.148438 C 817.347656 652.597656 817.609375 655.011719 818.167969 657.398438 C 818.726562 659.996094 819.480469 662.539062 820.4375 665.019531 C 821.390625 667.5 822.535156 669.890625 823.863281 672.195312 C 825.191406 674.496094 826.691406 676.683594 828.363281 678.75 C 830.035156 680.820312 831.859375 682.742188 833.832031 684.527344 C 837.753906 688.15625 842.058594 691.246094 846.753906 693.792969 C 851.449219 696.34375 856.386719 698.277344 861.5625 699.589844 C 878.441406 704.441406 895.9375 704.707031 913.125 701.398438 C 937.832031 696.878906 959.453125 685.960938 976.441406 667.34375 C 988.199219 654.992188 995.128906 640.523438 995.746094 623.234375 C 995.828125 621.996094 995.855469 620.757812 995.828125 619.515625 C 995.796875 618.273438 995.71875 617.039062 995.582031 615.804688 C 995.445312 614.570312 995.253906 613.347656 995.011719 612.132812 C 994.765625 610.914062 994.46875 609.710938 994.121094 608.519531 C 993.769531 607.332031 993.371094 606.15625 992.917969 605.003906 C 992.464844 603.847656 991.960938 602.714844 991.410156 601.601562 C 990.855469 600.492188 990.257812 599.40625 989.609375 598.347656 C 988.960938 597.292969 988.269531 596.261719 987.53125 595.265625 C 986.792969 594.269531 986.011719 593.304688 985.1875 592.375 C 984.367188 591.449219 983.503906 590.558594 982.601562 589.703125 C 981.703125 588.851562 980.765625 588.039062 979.792969 587.269531 C 978.820312 586.496094 977.816406 585.769531 976.78125 585.089844 C 975.742188 584.40625 974.679688 583.769531 973.585938 583.179688 C 972.496094 582.59375 971.378906 582.050781 970.238281 581.5625 C 969.097656 581.070312 967.941406 580.628906 966.761719 580.242188 C 965.582031 579.851562 964.390625 579.515625 963.183594 579.230469 L 946.898438 576.210938 L 897.152344 571.800781 C 891.722656 571.492188 886.296875 570.585938 881.773438 567.875 C 876.035156 564.257812 874.535156 557.332031 878.15625 552.808594 C 880.867188 549.5 884.179688 547.382812 888.414062 547.074219 L 898.054688 546.191406 C 902.789062 545.710938 907.453125 544.847656 912.046875 543.605469 C 916.640625 542.359375 921.105469 540.753906 925.433594 538.78125 C 929.765625 536.808594 933.90625 534.496094 937.859375 531.847656 C 941.8125 529.199219 945.523438 526.246094 948.996094 522.988281 C 952.726562 519.539062 955.902344 515.632812 958.515625 511.273438 C 961.128906 506.914062 963.082031 502.277344 964.375 497.359375 C 967.992188 484.390625 967.992188 470.894531 964.96875 457.660156 C 964.085938 454.351562 964.375 454.042969 968.585938 454.640625 Z M 894.8125 604.90625 C 896.621094 605.214844 898.429688 604.90625 900.238281 604.90625 C 912.902344 605.5 925.875 606.40625 938.230469 609.757812 C 942.269531 610.949219 946.191406 612.457031 949.988281 614.277344 C 962.054688 620.894531 966.578125 632.363281 965.058594 644.714844 C 963.246094 658.28125 955.703125 667.917969 943.945312 674.269531 C 936.113281 678.679688 927.351562 680.601562 918.308594 681.503906 C 915 681.8125 911.976562 681.503906 908.667969 681.503906 C 898.121094 681.8125 887.863281 680.621094 877.914062 676.386719 C 870.984375 673.675781 865.25 669.769531 860.128906 664.324219 C 849.585938 653.78125 844.6875 634.480469 860.4375 618.800781 C 870.078125 609.976562 880.957031 603.734375 894.8125 604.90625 Z M 929.183594 510.859375 C 922.851562 526.828125 908.976562 531.65625 895.121094 529.539062 C 882.457031 527.730469 873.101562 520.804688 867.101562 509.335938 C 859.269531 493.964844 857.175781 478.019531 861.675781 461.410156 C 864.984375 449.058594 872.527344 439.707031 885.789062 437.589844 C 902.664062 434.566406 918.882812 440.613281 927.398438 457.484375 C 931.808594 465.644531 933.730469 475.570312 933.730469 489.730469 C 933.421875 495.464844 932.230469 503.292969 929.207031 510.835938 Z M 549.320312 490.347656 C 546.605469 474.070312 540.582031 459.292969 529.421875 446.941406 C 512.828125 428.546875 491.738281 420.472656 467.910156 420.410156 C 447.105469 420.097656 427.539062 426.144531 410.019531 436.996094 C 405.753906 439.546875 401.765625 442.476562 398.054688 445.789062 C 394.347656 449.097656 390.980469 452.726562 387.960938 456.675781 C 384.941406 460.621094 382.320312 464.820312 380.097656 469.265625 C 377.875 473.710938 376.089844 478.328125 374.742188 483.113281 C 369.625 500.601562 369.890625 518.402344 373.859375 536.15625 C 384.40625 583.796875 421.207031 604.265625 465.199219 601.265625 C 478.171875 600.382812 490.523438 596.148438 502.261719 590.414062 C 519.757812 582.253906 532.421875 569.308594 541.15625 552.125 C 548.085938 537.964844 551.085938 522.878906 550.796875 505.699219 L 549.296875 490.324219 Z M 506.519531 557.265625 C 505.984375 558.949219 505.328125 560.589844 504.554688 562.183594 C 503.78125 563.773438 502.894531 565.300781 501.902344 566.765625 C 500.90625 568.226562 499.808594 569.609375 498.613281 570.914062 C 497.417969 572.21875 496.132812 573.429688 494.761719 574.550781 C 493.390625 575.667969 491.945312 576.679688 490.425781 577.589844 C 488.90625 578.5 487.328125 579.292969 485.695312 579.972656 C 484.058594 580.652344 482.386719 581.210938 480.671875 581.648438 C 478.957031 582.085938 477.21875 582.398438 475.457031 582.585938 C 462.21875 584.394531 449.820312 581.085938 438.679688 573.234375 C 434.65625 570.273438 431.042969 566.886719 427.832031 563.0625 C 424.621094 559.242188 421.902344 555.097656 419.683594 550.625 C 407.328125 525.304688 405.210938 498.792969 411.519531 471.664062 C 412.535156 467.46875 414.121094 463.496094 416.277344 459.753906 C 418.429688 456.007812 421.066406 452.644531 424.183594 449.65625 C 435.347656 439.398438 448.296875 436.996094 462.792969 440.015625 C 476.691406 443.039062 487.214844 450.558594 495.886719 462.027344 C 504.558594 473.496094 508.550781 486.730469 510.953125 500.625 C 512.167969 507.550781 512.167969 514.785156 512.453125 519.304688 C 512.453125 533.773438 511.242188 545.773438 506.71875 557.285156 Z M 1208.09375 492.773438 C 1205.886719 475.28125 1199.355469 459.316406 1186.980469 446.058594 C 1170.695312 428.28125 1149.582031 420.738281 1126.085938 420.429688 C 1105.878906 420.121094 1087.191406 425.855469 1070.007812 435.804688 C 1050.703125 447.273438 1037.441406 463.527344 1032.324219 485.539062 C 1030.808594 491.496094 1029.820312 497.539062 1029.363281 503.671875 C 1028.90625 509.800781 1028.988281 515.925781 1029.605469 522.039062 C 1030.222656 528.15625 1031.367188 534.171875 1033.039062 540.089844 C 1034.710938 546.003906 1036.882812 551.730469 1039.558594 557.265625 C 1049.488281 578.371094 1066.386719 591.9375 1088.714844 597.957031 C 1113.425781 604.574219 1136.964844 601.574219 1159.863281 590.414062 C 1179.765625 580.777344 1193.929688 565.710938 1202.070312 545.199219 C 1206.921875 533.136719 1208.6875 520.1875 1208.996094 505.101562 C 1209.304688 502.390625 1208.6875 497.558594 1208.113281 492.75 Z M 1166.484375 553.359375 C 1161.628906 569.636719 1151.414062 580.179688 1134.230469 582.605469 C 1121.566406 584.414062 1109.519531 581.394531 1098.640625 574.160156 C 1089.289062 567.828125 1082.667969 559.382812 1077.839844 549.457031 C 1072.410156 538.914062 1069.386719 527.753906 1068.195312 516.308594 C 1066.386719 502.148438 1066.386719 488.296875 1069.695312 474.113281 C 1070.328125 471.3125 1071.234375 468.597656 1072.410156 465.976562 C 1080.859375 444.867188 1099.546875 435.230469 1121.566406 440.058594 C 1136.347656 443.367188 1147.488281 451.527344 1155.9375 463.878906 C 1164.101562 475.945312 1168.003906 489.199219 1169.835938 503.582031 C 1170.71875 509.316406 1171.050781 515.335938 1170.71875 520.453125 C 1170.71875 532.210938 1169.835938 543.0625 1166.308594 553.601562 Z M 1166.484375 553.359375 " fill-opacity="1" fill-rule="nonzero"/><path fill="#599636" d="M 904.445312 791.507812 L 923.515625 827.292969 C 927.804688 833.898438 932.449219 839.742188 937.921875 845.1875 C 953.890625 861.140625 969.054688 877.851562 982.675781 895.742188 C 1014.992188 938.132812 1036.789062 985.210938 1052.355469 1036.125 C 1061.6875 1067.226562 1066.757812 1099.128906 1067.136719 1131.390625 C 1068.699219 1227.84375 1035.605469 1310.660156 968.875 1379.488281 C 957.976562 1390.378906 946.320312 1400.460938 933.8125 1409.429688 C 927.203125 1409.429688 924.074219 1404.367188 921.351562 1399.703125 C 916.28125 1391.160156 913.175781 1381.410156 911.613281 1371.703125 C 909.269531 1360.035156 907.726562 1348.367188 908.488281 1336.320312 L 908.488281 1330.875 C 907.949219 1329.714844 902.121094 794.25 904.445312 791.507812 Z M 904.445312 791.507812 " fill-opacity="1" fill-rule="nonzero"/><g clip-path="url(#b08c3a41c1)"><path fill="#6cac48" d="M 904.445312 790.324219 C 903.664062 788.761719 902.882812 789.945312 902.101562 790.703125 C 902.480469 798.511719 899.753906 805.472656 895.488281 812.121094 C 890.800781 818.726562 884.589844 823.789062 878.359375 829.234375 C 843.746094 859.175781 816.5 895.339844 794.679688 935.792969 C 765.648438 990.230469 750.683594 1048.574219 746.441406 1109.996094 C 744.5 1132.152344 753.453125 1210.328125 760.445312 1232.882812 C 779.515625 1292.765625 813.773438 1342.945312 858.148438 1386.496094 C 869.046875 1396.980469 880.707031 1406.710938 892.765625 1416.058594 C 896.269531 1416.058594 896.652344 1412.933594 897.453125 1410.613281 C 898.992188 1405.640625 900.164062 1400.585938 900.960938 1395.441406 L 908.777344 1337.121094 Z M 904.445312 790.324219 " fill-opacity="1" fill-rule="nonzero"/></g><g clip-path="url(#52656337f0)"><path fill="#c2bfbf" d="M 923.515625 1433.125 C 924.296875 1424.203125 928.585938 1416.792969 933.253906 1409.410156 C 928.5625 1407.46875 925.082031 1403.609375 922.355469 1399.300781 C 920.011719 1395.421875 918.066406 1390.757812 916.550781 1386.472656 C 911.101562 1370.140625 909.9375 1353.007812 908.375 1336.320312 L 908.375 1326.210938 C 906.433594 1327.773438 906.03125 1340.980469 906.03125 1342.945312 C 904.894531 1360.605469 902.554688 1378.101562 899.019531 1395.441406 C 897.855469 1402.449219 897.074219 1409.433594 892.765625 1415.65625 C 892.765625 1416.4375 892.765625 1417.21875 893.144531 1418.378906 C 900.15625 1438.992188 902.078125 1459.988281 903.261719 1481.382812 L 903.261719 1489.195312 C 903.261719 1498.519531 902.882812 1496.554688 910.632812 1499.679688 C 913.757812 1500.839844 917.242188 1501.242188 920.367188 1503.5625 C 922.714844 1503.5625 923.09375 1501.621094 923.09375 1500.058594 L 921.929688 1487.230469 L 921.929688 1451.441406 C 921.550781 1445.195312 922.714844 1438.992188 923.496094 1433.148438 Z M 923.515625 1433.125 " fill-opacity="1" fill-rule="nonzero"/></g></svg>