<svg xmlns="http://www.w3.org/2000/svg" xmlns:xlink="http://www.w3.org/1999/xlink" width="2379" zoomAndPan="magnify" viewBox="0 0 1784.88 1784.99993" height="2379" preserveAspectRatio="xMidYMid meet" version="1.0"><defs><clipPath id="64f71fee42"><path d="M 465 1094 L 731 1094 L 731 1487.3125 L 465 1487.3125 Z M 465 1094 " clip-rule="nonzero"/></clipPath></defs><g clip-path="url(#64f71fee42)"><path fill="#105e86" d="M 493.519531 1447.46875 C 482.867188 1447.46875 473.382812 1446.8125 465.355469 1445.574219 L 465.355469 1480.964844 C 481.84375 1487.53125 495.488281 1490.816406 506.648438 1490.816406 C 548.453125 1490.816406 586.972656 1465.273438 622.140625 1413.976562 C 667.078125 1347.574219 703.410156 1240.964844 730.988281 1094.4375 L 666.789062 1094.4375 C 655.335938 1184.410156 635.050781 1267.742188 605.871094 1343.925781 C 607.914062 1328.675781 602.878906 1301.894531 590.914062 1263.511719 L 537.875 1094.4375 L 471.484375 1094.4375 L 545.460938 1320.574219 C 556.625 1354.503906 562.242188 1377.125 562.242188 1388.21875 C 562.242188 1404.199219 555.09375 1418.644531 540.71875 1431.5625 C 528.753906 1442.070312 513.070312 1447.46875 493.519531 1447.46875 Z M 493.519531 1447.46875 " fill-opacity="1" fill-rule="nonzero"/></g><path fill="#de8a03" d="M 1438.292969 990.601562 L 1438.292969 1386.757812 L 1630.167969 1386.757812 L 1630.167969 1338.015625 L 1502.859375 1338.015625 L 1502.859375 990.601562 Z M 1438.292969 990.601562 " fill-opacity="1" fill-rule="nonzero"/><path fill="#105e86" d="M 92.84375 1070.796875 L 93.574219 1070.796875 L 195.714844 1386.757812 L 247.148438 1386.757812 L 350.015625 1070.796875 L 350.597656 1070.796875 C 361.324219 1169.671875 368.105469 1274.820312 370.296875 1386.757812 L 438.144531 1386.757812 C 434.933594 1267.085938 424.574219 1134.9375 406.917969 990.601562 L 327.035156 990.601562 L 228.761719 1281.753906 L 228.179688 1281.753906 L 130.78125 990.601562 L 46.882812 990.601562 C 30.980469 1113.777344 20.984375 1245.925781 16.972656 1386.757812 L 78.621094 1386.757812 C 80.589844 1270.882812 85.332031 1165.585938 92.84375 1070.796875 Z M 92.84375 1070.796875 " fill-opacity="1" fill-rule="nonzero"/><path fill="#de8a03" d="M 1379.710938 1181.273438 C 1379.710938 1050.21875 1327.328125 984.542969 1222.492188 984.542969 C 1171.128906 984.542969 1131.003906 1001.183594 1102.113281 1034.457031 C 1070.742188 1070.867188 1054.984375 1124.429688 1054.984375 1195.285156 C 1054.984375 1264.898438 1068.847656 1316.050781 1096.863281 1348.59375 C 1122.398438 1378 1160.84375 1392.667969 1212.351562 1392.667969 C 1231.609375 1392.667969 1249.265625 1390.332031 1265.242188 1385.664062 L 1361.910156 1440.976562 L 1388.175781 1396.464844 L 1387.957031 1396.464844 L 1313.832031 1360.632812 C 1320.398438 1355.160156 1326.746094 1349.324219 1332.4375 1342.757812 C 1364.027344 1306.417969 1379.710938 1252.566406 1379.710938 1181.273438 Z M 1218.988281 1343.632812 C 1186.523438 1343.632812 1162.8125 1331.664062 1147.640625 1307.804688 L 1147.785156 1307.441406 C 1131.371094 1281.679688 1123.199219 1240.085938 1123.199219 1183.097656 C 1123.199219 1083.273438 1154.132812 1033.363281 1215.851562 1033.363281 C 1248.171875 1033.363281 1272.027344 1045.328125 1287.128906 1069.191406 C 1303.472656 1095.09375 1311.644531 1136.25 1311.644531 1192.65625 C 1311.644531 1293.210938 1280.710938 1343.632812 1218.988281 1343.632812 Z M 1218.988281 1343.632812 " fill-opacity="1" fill-rule="nonzero"/><path fill="#de8a03" d="M 979.988281 1193.53125 C 979.988281 1193.53125 922.058594 1160.914062 893.386719 1145.519531 C 861.871094 1128.296875 844.800781 1108.082031 844.800781 1084.660156 C 844.800781 1069.335938 851.730469 1056.859375 862.894531 1047.082031 C 873.980469 1037.15625 889.960938 1032.339844 910.605469 1032.339844 C 936.066406 1032.339844 961.964844 1037.886719 988.230469 1048.832031 L 1003.769531 1014.753906 C 973.128906 995.125 938.984375 985.421875 901.632812 985.421875 C 865.15625 985.421875 835.609375 995.199219 812.625 1015.121094 C 789.792969 1034.820312 778.335938 1060.578125 778.335938 1092.832031 C 778.335938 1131.582031 793.65625 1155.148438 824.445312 1177.1875 C 824.445312 1177.1875 880.984375 1209.003906 909.292969 1224.253906 C 939.789062 1241.109375 956.566406 1261.175781 956.566406 1284.820312 C 956.566406 1303.5 948.398438 1318.3125 934.679688 1328.894531 C 920.820312 1339.398438 901.777344 1344.652344 877.558594 1344.652344 C 851.511719 1344.652344 822.695312 1336.917969 790.738281 1321.15625 L 773.449219 1355.234375 C 810.582031 1379.824219 848.59375 1392.15625 888.207031 1392.15625 C 930.597656 1392.15625 964.082031 1381.429688 989.179688 1359.90625 C 1014.277344 1338.453125 1026.824219 1310.796875 1026.824219 1277.082031 L 1027.261719 1277.300781 C 1027.261719 1238.699219 1011.578125 1215.421875 979.988281 1193.53125 Z M 979.988281 1193.53125 " fill-opacity="1" fill-rule="nonzero"/><path fill="#105e86" d="M 1213.808594 441.496094 C 1205.421875 441.496094 1199.730469 442.519531 1193.820312 443.832031 L 1193.820312 444.78125 L 1194.839844 444.78125 C 1198.78125 452.222656 1205.492188 457.699219 1210.453125 464.335938 C 1214.394531 472 1217.75 479.660156 1221.6875 487.25 L 1222.710938 486.15625 C 1229.566406 481.414062 1232.925781 473.824219 1232.925781 462.292969 C 1230.007812 458.9375 1229.566406 455.582031 1227.085938 452.296875 C 1224.167969 447.480469 1217.894531 445.144531 1213.957031 441.351562 Z M 1213.808594 441.496094 " fill-opacity="1" fill-rule="nonzero"/><path fill="#105e86" d="M 1745.65625 983.816406 C 1731.503906 965.207031 1713.921875 948.933594 1694.953125 935.433594 C 1679.339844 925 1645.195312 910.332031 1638.777344 892.820312 L 1637.828125 891.800781 C 1648.480469 890.851562 1661.175781 887.054688 1671.386719 884.210938 C 1687.949219 879.90625 1703.125 880.851562 1720.269531 876.621094 C 1728 874.722656 1735.808594 872.316406 1743.613281 869.90625 L 1743.613281 865.601562 C 1734.859375 856.992188 1728.292969 845.316406 1719.246094 837.289062 C 1694.441406 816.128906 1666.9375 795.625 1638.703125 778.328125 C 1623.382812 768.699219 1603.976562 762.566406 1587.855469 754.394531 C 1582.015625 751.550781 1572.242188 750.089844 1568.886719 745.273438 C 1560.128906 734.839844 1555.023438 720.902344 1548.824219 708.425781 C 1534.816406 682.082031 1521.097656 652.894531 1508.914062 625.089844 C 1500.160156 606.339844 1494.835938 587.65625 1484.109375 570.4375 C 1433.769531 489 1379.273438 439.601562 1295.445312 391.367188 C 1277.425781 381.371094 1255.832031 377.066406 1232.996094 371.738281 C 1220.8125 371.152344 1208.628906 370.277344 1196.519531 369.769531 C 1188.492188 366.410156 1180.761719 357.289062 1173.902344 352.910156 C 1146.179688 335.691406 1074.390625 298.476562 1053.964844 347.730469 C 1040.832031 378.816406 1073.441406 409.464844 1084.75 425.226562 C 1093.140625 436.171875 1103.71875 448.722656 1109.554688 461.054688 C 1112.984375 469.371094 1113.933594 477.910156 1117.363281 486.59375 C 1125.09375 507.683594 1132.464844 531.105469 1142.679688 550.878906 C 1148.003906 560.878906 1153.839844 571.457031 1160.699219 580.433594 C 1164.636719 585.6875 1171.347656 588.09375 1172.882812 596.707031 C 1166.023438 606.484375 1165.585938 620.640625 1161.644531 632.535156 C 1144.136719 686.75 1150.996094 753.8125 1175.800781 793.726562 C 1183.605469 805.621094 1202.210938 831.964844 1227.085938 821.894531 C 1248.972656 813.28125 1244.160156 786.066406 1250.433594 762.058594 C 1251.890625 756.292969 1250.945312 752.5 1253.933594 748.628906 L 1253.933594 749.726562 C 1260.792969 763.226562 1267.652344 775.996094 1273.925781 789.496094 C 1288.953125 812.992188 1315.21875 837.363281 1337.175781 853.636719 C 1348.851562 862.246094 1358.117188 877.132812 1372.707031 882.457031 L 1372.707031 881 L 1371.613281 881 C 1368.476562 876.839844 1364.316406 874.871094 1360.378906 871.441406 C 1351.621094 862.828125 1341.773438 852.320312 1334.84375 842.761719 C 1314.414062 815.765625 1296.394531 786.136719 1280.34375 755.488281 C 1272.320312 740.457031 1265.609375 724.257812 1259.1875 709.445312 C 1256.269531 703.753906 1256.269531 695.144531 1251.382812 692.226562 C 1244.085938 702.660156 1233.363281 711.78125 1228.035156 724.695312 C 1218.769531 745.347656 1217.820312 770.667969 1214.320312 797.082031 C 1212.351562 797.59375 1213.296875 797.082031 1212.351562 798.105469 C 1196.738281 794.382812 1191.410156 778.476562 1185.574219 765.121094 C 1170.984375 731.117188 1168.578125 676.464844 1181.199219 637.203125 C 1184.628906 627.207031 1199.21875 595.539062 1193.382812 585.90625 C 1190.316406 576.785156 1180.6875 571.605469 1175.363281 564.234375 C 1169.015625 555.332031 1162.230469 543.800781 1157.851562 533.660156 C 1146.179688 506.878906 1140.34375 477.179688 1127.648438 450.398438 C 1121.8125 437.996094 1111.597656 425.007812 1103.28125 413.621094 C 1094.015625 400.707031 1083.800781 391.660156 1076.433594 376.335938 C 1074.027344 371.082031 1070.597656 362.398438 1074.464844 356.707031 C 1075.484375 352.839844 1077.527344 351.304688 1081.320312 350.285156 C 1087.742188 345.105469 1105.761719 351.890625 1112.109375 354.734375 C 1130.128906 361.886719 1145.304688 368.601562 1160.40625 378.671875 C 1167.265625 383.414062 1174.632812 392.460938 1183.386719 394.871094 L 1193.601562 394.871094 C 1209.214844 398.226562 1226.796875 395.890625 1241.386719 400.125 C 1267.285156 408.296875 1290.632812 420.191406 1311.570312 433.105469 C 1375.480469 472.949219 1428.007812 529.425781 1463.683594 596.851562 C 1469.519531 607.871094 1472.074219 618.011719 1477.398438 629.46875 C 1487.613281 653.113281 1500.234375 676.972656 1510.59375 699.8125 C 1520.808594 722.363281 1530.65625 745.421875 1545.320312 764.101562 C 1552.617188 774.097656 1581.945312 779.351562 1595.074219 784.605469 C 1604.777344 788.910156 1619.878906 792.851562 1628.636719 798.105469 C 1645.414062 808.101562 1661.757812 819.632812 1677.515625 830.648438 C 1685.539062 836.121094 1709.835938 848.089844 1711.292969 857.722656 C 1672.261719 856.699219 1641.984375 860.566406 1616.671875 871.222656 C 1609.375 874.066406 1597.703125 874.066406 1596.679688 883.1875 C 1600.691406 886.984375 1601.277344 893.183594 1604.707031 898.511719 C 1610.542969 908.070312 1620.609375 920.914062 1629.949219 927.699219 C 1640.164062 935.582031 1650.375 943.171875 1661.101562 949.882812 C 1680.070312 961.339844 1701.589844 968.125 1720.195312 979.65625 C 1730.773438 986.367188 1741.570312 994.90625 1752.296875 1002.058594 C 1757.621094 1005.632812 1761.050781 1012.128906 1767.90625 1014.390625 L 1767.90625 1013.003906 C 1764.550781 1008.699219 1763.53125 1002.496094 1760.246094 997.679688 C 1755.359375 992.863281 1750.472656 988.558594 1745.65625 983.816406 Z M 1745.65625 983.816406 " fill-opacity="1" fill-rule="nonzero"/></svg>