<svg xmlns="http://www.w3.org/2000/svg" xmlns:xlink="http://www.w3.org/1999/xlink" width="2379" zoomAndPan="magnify" viewBox="0 0 1784.88 1784.99993" height="2379" preserveAspectRatio="xMidYMid meet" version="1.0"><path fill="#8cc84b" d="M 818.300781 30.765625 C 862.429688 5.777344 918.6875 5.667969 961.710938 30.765625 L 1620.519531 402.15625 C 1661.722656 425.324219 1689.300781 471.273438 1688.914062 518.765625 L 1688.914062 1263.421875 C 1689.191406 1312.902344 1658.910156 1359.84375 1615.445312 1382.570312 L 960.167969 1752.25 C 957.382812 1753.789062 954.546875 1755.234375 951.664062 1756.585938 C 948.785156 1757.9375 945.859375 1759.191406 942.894531 1760.347656 C 939.929688 1761.503906 936.925781 1762.558594 933.890625 1763.515625 C 930.855469 1764.472656 927.789062 1765.324219 924.695312 1766.078125 C 921.605469 1766.832031 918.488281 1767.480469 915.351562 1768.023438 C 912.21875 1768.570312 909.066406 1769.007812 905.902344 1769.34375 C 902.734375 1769.679688 899.5625 1769.910156 896.382812 1770.03125 C 893.199219 1770.15625 890.019531 1770.175781 886.835938 1770.085938 C 883.65625 1770 880.480469 1769.804688 877.3125 1769.503906 C 874.140625 1769.207031 870.988281 1768.800781 867.84375 1768.292969 C 864.703125 1767.78125 861.582031 1767.167969 858.480469 1766.449219 C 855.378906 1765.734375 852.304688 1764.914062 849.257812 1763.992188 C 846.210938 1763.070312 843.199219 1762.046875 840.21875 1760.925781 C 837.242188 1759.800781 834.304688 1758.582031 831.40625 1757.261719 C 828.507812 1755.945312 825.660156 1754.53125 822.855469 1753.023438 C 820.050781 1751.515625 817.300781 1749.914062 814.605469 1748.222656 L 617.96875 1634.59375 C 604.5625 1626.597656 589.507812 1620.253906 580.019531 1607.289062 C 588.402344 1596.039062 603.296875 1594.601562 615.429688 1589.640625 C 642.789062 1580.921875 667.832031 1567.574219 692.984375 1553.453125 C 699.324219 1549.042969 707.101562 1550.695312 713.171875 1554.667969 L 880.851562 1651.636719 C 892.820312 1658.535156 904.953125 1649.433594 915.214844 1643.640625 L 1558.632812 1280.523438 C 1566.574219 1276.660156 1570.988281 1268.277344 1570.324219 1259.5625 L 1570.324219 522.074219 C 1571.207031 512.144531 1565.527344 503.101562 1556.535156 499.074219 L 902.914062 130.992188 C 901.976562 130.34375 900.996094 129.769531 899.976562 129.269531 C 898.953125 128.769531 897.898438 128.351562 896.8125 128.011719 C 895.726562 127.671875 894.617188 127.414062 893.492188 127.242188 C 892.367188 127.066406 891.238281 126.980469 890.097656 126.976562 C 888.960938 126.972656 887.828125 127.058594 886.703125 127.226562 C 885.574219 127.394531 884.46875 127.644531 883.382812 127.980469 C 882.292969 128.316406 881.238281 128.734375 880.210938 129.230469 C 879.1875 129.722656 878.203125 130.292969 877.265625 130.9375 L 224.582031 499.789062 C 215.753906 503.816406 209.6875 512.753906 210.789062 522.683594 L 210.789062 1260.167969 C 210.019531 1268.882812 214.652344 1277.101562 222.648438 1280.855469 L 397.058594 1379.3125 C 429.824219 1396.964844 470.035156 1406.894531 506.105469 1393.933594 C 508.066406 1393.195312 509.996094 1392.382812 511.890625 1391.496094 C 513.789062 1390.613281 515.648438 1389.65625 517.476562 1388.632812 C 519.300781 1387.605469 521.082031 1386.511719 522.824219 1385.351562 C 524.566406 1384.1875 526.261719 1382.964844 527.910156 1381.671875 C 529.558594 1380.382812 531.15625 1379.03125 532.703125 1377.621094 C 534.25 1376.210938 535.742188 1374.742188 537.175781 1373.21875 C 538.609375 1371.691406 539.984375 1370.117188 541.300781 1368.488281 C 542.617188 1366.859375 543.867188 1365.183594 545.054688 1363.457031 C 546.242188 1361.734375 547.363281 1359.96875 548.417969 1358.160156 C 549.472656 1356.351562 550.457031 1354.503906 551.371094 1352.621094 C 552.285156 1350.738281 553.125 1348.820312 553.894531 1346.875 C 554.660156 1344.925781 555.355469 1342.953125 555.972656 1340.953125 C 556.589844 1338.953125 557.132812 1336.929688 557.597656 1334.890625 C 558.0625 1332.847656 558.449219 1330.792969 558.757812 1328.722656 C 559.070312 1326.652344 559.296875 1324.570312 559.449219 1322.484375 C 559.601562 1320.394531 559.671875 1318.304688 559.664062 1316.210938 L 559.832031 583.136719 C 559.058594 572.269531 569.316406 563.28125 579.851562 564.382812 L 663.695312 564.382812 C 674.726562 564.105469 683.386719 575.800781 681.894531 586.722656 L 681.730469 1324.429688 C 681.785156 1389.960938 654.867188 1461.226562 594.25 1493.382812 C 519.566406 1531.996094 427.230469 1523.886719 353.429688 1486.765625 L 165.890625 1383.066406 C 121.765625 1361 92.144531 1313.34375 92.421875 1263.917969 L 92.421875 519.261719 C 92.445312 516.253906 92.566406 513.25 92.789062 510.25 C 93.011719 507.246094 93.335938 504.257812 93.757812 501.28125 C 94.179688 498.300781 94.699219 495.339844 95.316406 492.394531 C 95.933594 489.449219 96.652344 486.527344 97.464844 483.632812 C 98.277344 480.734375 99.183594 477.867188 100.1875 475.03125 C 101.191406 472.195312 102.289062 469.394531 103.476562 466.632812 C 104.667969 463.871094 105.945312 461.148438 107.316406 458.46875 C 108.6875 455.792969 110.148438 453.164062 111.691406 450.582031 C 113.238281 448 114.867188 445.472656 116.582031 443 C 118.292969 440.527344 120.089844 438.113281 121.964844 435.761719 C 123.835938 433.40625 125.789062 431.117188 127.8125 428.894531 C 129.839844 426.671875 131.9375 424.515625 134.109375 422.433594 C 136.277344 420.347656 138.515625 418.335938 140.816406 416.402344 C 143.121094 414.464844 145.484375 412.609375 147.914062 410.832031 C 150.339844 409.054688 152.824219 407.359375 155.363281 405.746094 C 157.902344 404.132812 160.492188 402.605469 163.132812 401.164062 Z M 1008.265625 546.953125 C 1103.523438 541.4375 1205.511719 543.3125 1291.226562 590.253906 C 1357.582031 626.21875 1394.371094 701.675781 1395.585938 775.480469 C 1393.710938 785.410156 1383.339844 790.925781 1373.851562 790.207031 C 1346.273438 790.152344 1318.585938 790.59375 1290.894531 790.042969 C 1279.148438 790.484375 1272.363281 779.671875 1270.875 769.300781 C 1262.929688 734 1243.679688 699.082031 1210.476562 682.039062 C 1159.507812 656.5 1100.378906 657.769531 1044.78125 658.320312 C 1004.183594 660.527344 960.554688 664 926.191406 687.832031 C 899.714844 705.921875 891.773438 742.992188 901.203125 771.785156 C 910.03125 792.910156 934.464844 799.695312 954.375 805.984375 C 1069.214844 835.988281 1190.839844 833.5625 1303.527344 872.5625 C 1350.136719 888.667969 1395.75 920 1411.746094 968.816406 C 1432.597656 1034.234375 1423.496094 1112.449219 1376.996094 1164.964844 C 1339.269531 1208.207031 1284.332031 1231.15625 1229.449219 1244.503906 C 1156.476562 1260.777344 1080.800781 1261.160156 1006.722656 1253.878906 C 937.058594 1245.9375 864.578125 1227.625 810.800781 1180.1875 C 764.796875 1140.25 742.40625 1078.03125 744.609375 1018.015625 C 745.164062 1007.867188 755.257812 1000.808594 765.019531 1001.632812 L 847.757812 1001.632812 C 858.898438 1000.863281 867.0625 1010.460938 867.613281 1020.941406 C 872.742188 1054.035156 885.375 1089.890625 914.71875 1109.195312 C 971.308594 1145.710938 1042.296875 1143.175781 1107.054688 1144.222656 C 1160.722656 1141.851562 1220.957031 1141.132812 1264.804688 1105.609375 C 1287.972656 1085.367188 1294.757812 1051.554688 1288.523438 1022.429688 C 1281.738281 997.828125 1255.429688 986.410156 1233.367188 978.300781 C 1120.015625 942.449219 997.015625 955.464844 884.765625 914.867188 C 839.207031 898.761719 795.136719 868.3125 777.648438 821.484375 C 753.214844 755.289062 764.414062 673.269531 815.875 622.519531 C 865.515625 572.050781 938.324219 552.578125 1007.273438 545.628906 Z M 1008.265625 546.953125 " fill-opacity="1" fill-rule="nonzero"/></svg>