<svg xmlns="http://www.w3.org/2000/svg" xmlns:xlink="http://www.w3.org/1999/xlink" width="2379" zoomAndPan="magnify" viewBox="0 0 1784.88 1784.99993" height="2379" preserveAspectRatio="xMidYMid meet" version="1.0"><path fill="#00d8ff" d="M 1466.335938 613.503906 C 1447.894531 607.144531 1428.761719 601.128906 1409 595.4375 C 1412.269531 582.214844 1415.261719 569.164062 1417.90625 556.335938 C 1461.253906 345.699219 1432.9375 176.003906 1336.011719 120.132812 C 1243.050781 66.5625 1091.089844 122.421875 937.597656 255.957031 C 922.847656 268.796875 908.027344 282.390625 893.273438 296.636719 C 883.394531 287.210938 873.582031 278.105469 863.773438 269.390625 C 702.90625 126.609375 541.667969 66.429688 444.855469 122.460938 C 352.011719 176.191406 324.523438 335.714844 363.597656 535.34375 C 367.371094 554.625 371.78125 574.320312 376.761719 594.339844 C 353.949219 600.816406 331.917969 607.714844 310.84375 615.0625 C 122.253906 680.789062 1.820312 783.808594 1.820312 890.675781 C 1.820312 1001 131.113281 1111.742188 327.535156 1178.871094 C 343.03125 1184.15625 359.117188 1189.164062 375.691406 1193.894531 C 370.3125 1215.53125 365.636719 1236.746094 361.707031 1257.476562 C 324.453125 1453.636719 353.542969 1609.386719 446.132812 1662.738281 C 541.765625 1717.902344 702.277344 1661.210938 858.554688 1524.660156 C 870.941406 1513.878906 883.324219 1502.402344 895.710938 1490.4375 C 911.851562 1505.878906 927.925781 1520.554688 943.859375 1534.328125 C 1095.265625 1664.546875 1244.792969 1717.136719 1337.261719 1663.644531 C 1432.796875 1608.34375 1463.898438 1440.976562 1423.542969 1237.441406 C 1420.480469 1221.859375 1416.863281 1206 1412.898438 1189.859375 C 1424.167969 1186.523438 1435.230469 1183.042969 1446.015625 1179.496094 C 1650.234375 1111.8125 1783.0625 1002.53125 1783.0625 890.675781 C 1783.0625 783.421875 1658.722656 679.710938 1466.335938 613.503906 Z M 1422.082031 1107.292969 C 1412.339844 1110.492188 1402.320312 1113.621094 1392.164062 1116.613281 C 1369.617188 1045.3125 1339.210938 969.421875 1301.917969 891.023438 C 1337.472656 814.507812 1366.695312 739.617188 1388.613281 668.734375 C 1406.84375 674.007812 1424.515625 679.566406 1441.5625 685.429688 C 1606.398438 742.164062 1706.941406 826.054688 1706.941406 890.675781 C 1706.941406 959.472656 1598.398438 1048.859375 1422.082031 1107.292969 Z M 1348.882812 1252.1875 C 1366.765625 1342.199219 1369.269531 1423.585938 1357.441406 1487.238281 C 1346.867188 1544.417969 1325.503906 1582.535156 1299.132812 1597.769531 C 1242.984375 1630.253906 1122.957031 1588.03125 993.539062 1476.664062 C 978.648438 1463.863281 963.691406 1450.230469 948.730469 1435.832031 C 998.898438 1380.945312 1049.0625 1317.160156 1098.046875 1246.277344 C 1184.117188 1238.695312 1265.457031 1226.171875 1339.28125 1209.128906 C 1342.898438 1223.808594 1346.101562 1238.136719 1348.882812 1252.1875 Z M 609.109375 1592.136719 C 554.269531 1611.542969 510.585938 1612.097656 484.179688 1596.867188 C 427.996094 1564.449219 404.636719 1439.378906 436.496094 1271.664062 C 440.148438 1252.464844 444.492188 1232.710938 449.5 1212.539062 C 522.464844 1228.675781 603.222656 1240.292969 689.539062 1247.25 C 738.835938 1316.601562 790.464844 1380.320312 842.441406 1436.109375 C 831.097656 1447.097656 819.757812 1457.535156 808.484375 1467.34375 C 739.390625 1527.789062 670.144531 1570.640625 609.109375 1592.136719 Z M 352.171875 1106.875 C 265.316406 1077.171875 193.585938 1038.636719 144.421875 996.480469 C 100.238281 958.707031 77.9375 921.144531 77.9375 890.675781 C 77.9375 825.847656 174.632812 743.109375 335.914062 686.898438 C 355.484375 680.074219 375.96875 673.644531 397.226562 667.609375 C 419.519531 740.089844 448.757812 815.898438 484.042969 892.484375 C 448.296875 970.257812 418.644531 1047.261719 396.132812 1120.648438 C 380.980469 1116.265625 366.296875 1111.675781 352.171875 1106.875 Z M 438.300781 520.734375 C 404.824219 349.699219 427.054688 220.683594 483.003906 188.300781 C 542.59375 153.8125 674.363281 202.984375 813.214844 326.277344 C 822.121094 334.15625 831.027344 342.402344 840.003906 350.9375 C 788.238281 406.496094 737.097656 469.742188 688.238281 538.667969 C 604.464844 546.433594 524.273438 558.898438 450.546875 575.597656 C 445.910156 556.957031 441.804688 538.640625 438.300781 520.734375 Z M 1206.601562 710.410156 C 1188.996094 679.976562 1170.90625 650.257812 1152.464844 621.347656 C 1209.3125 628.535156 1263.726562 638.070312 1314.867188 649.738281 C 1299.558594 698.925781 1280.425781 750.351562 1257.878906 803.101562 C 1241.738281 772.410156 1224.621094 741.488281 1206.601562 710.410156 Z M 893.28125 405.304688 C 928.417969 443.320312 963.558594 485.761719 998.136719 531.808594 C 963.277344 530.167969 928.003906 529.3125 892.445312 529.3125 C 857.238281 529.3125 822.242188 530.148438 787.589844 531.769531 C 822.171875 486.144531 857.65625 443.757812 893.28125 405.304688 Z M 577.960938 710.9375 C 560.355469 741.453125 543.582031 772.207031 527.675781 803.03125 C 505.519531 750.484375 486.558594 698.820312 471.078125 648.929688 C 521.898438 637.5625 576.09375 628.265625 632.566406 621.21875 C 613.855469 650.390625 595.613281 680.324219 577.960938 710.929688 Z M 634.1875 1165.515625 C 575.84375 1159.046875 520.835938 1150.210938 470.027344 1139.152344 C 485.761719 1088.371094 505.128906 1035.644531 527.765625 981.941406 C 543.707031 1012.757812 560.542969 1043.503906 578.257812 1074.109375 L 578.265625 1074.109375 C 596.308594 1105.273438 615.003906 1135.742188 634.1875 1165.515625 Z M 895.371094 1381.363281 C 859.328125 1342.480469 823.355469 1299.421875 788.214844 1253.164062 C 822.308594 1254.484375 857.101562 1255.179688 892.445312 1255.179688 C 928.765625 1255.179688 964.671875 1254.34375 999.949219 1252.816406 C 965.296875 1299.90625 930.230469 1343.035156 895.371094 1381.363281 Z M 1258.574219 979.230469 C 1282.371094 1033.488281 1302.480469 1085.9375 1318.414062 1135.882812 C 1266.785156 1147.636719 1210.984375 1157.097656 1152.257812 1164.191406 C 1170.765625 1134.90625 1188.996094 1104.648438 1206.949219 1073.554688 C 1225.109375 1042.113281 1242.292969 1010.601562 1258.574219 979.230469 Z M 1140.984375 1035.574219 C 1113.152344 1083.851562 1084.558594 1129.898438 1055.542969 1173.375 C 1002.730469 1177.132812 948.109375 1179.078125 892.445312 1179.078125 C 836.992188 1179.078125 783.066406 1177.410156 731.160156 1174 C 700.964844 1129.96875 671.773438 1083.78125 644.109375 1035.992188 L 644.117188 1035.992188 C 616.519531 988.34375 591.125 940.273438 568.113281 892.484375 C 591.117188 844.628906 616.453125 796.492188 643.886719 748.933594 L 643.878906 748.9375 C 671.386719 701.253906 700.335938 655.269531 730.257812 611.480469 C 783.207031 607.472656 837.546875 605.386719 892.445312 605.386719 C 947.625 605.386719 1001.964844 607.492188 1054.914062 611.527344 C 1084.417969 654.996094 1113.152344 700.832031 1140.777344 748.527344 C 1168.679688 796.769531 1194.355469 844.558594 1217.523438 891.441406 C 1194.421875 939.09375 1168.816406 987.367188 1140.984375 1035.574219 Z M 1297.957031 186.019531 C 1357.65625 220.410156 1380.828125 359.097656 1343.324219 540.964844 C 1340.957031 552.566406 1338.246094 564.386719 1335.324219 576.363281 C 1261.429688 559.316406 1181.203125 546.632812 1097.21875 538.753906 C 1048.234375 469.074219 997.511719 405.722656 946.582031 350.878906 C 960.289062 337.71875 973.996094 325.164062 987.5625 313.316406 C 1119.070312 198.910156 1242.015625 153.738281 1297.957031 186.019531 Z M 892.445312 731.625 C 980.257812 731.625 1051.507812 802.800781 1051.507812 890.65625 C 1051.507812 978.441406 980.257812 1049.675781 892.445312 1049.675781 C 804.636719 1049.675781 733.386719 978.441406 733.386719 890.65625 C 733.386719 802.800781 804.636719 731.625 892.445312 731.625 Z M 892.445312 731.625 " fill-opacity="1" fill-rule="nonzero"/></svg>